<?xml version="1.0" encoding="UTF-8"?>
<svg version="1.1" xmlns="http://www.w3.org/2000/svg" width="512" height="512">
<path d="M0 0 C0.91444685 -0.00445784 1.82889369 -0.00891569 2.77105105 -0.01350862 C4.27248488 -0.01323207 4.27248488 -0.01323207 5.80425072 -0.01294994 C6.87050348 -0.01662663 7.93675624 -0.02030332 9.03531969 -0.02409142 C12.62027867 -0.03513425 16.20520867 -0.03897314 19.79018211 -0.04278088 C22.35579585 -0.04904507 24.92140867 -0.05569183 27.48702049 -0.0626936 C35.19477293 -0.08192411 42.90252028 -0.09252235 50.61029059 -0.10142139 C54.24212801 -0.10580697 57.87396397 -0.11117309 61.50580025 -0.11641026 C73.58255333 -0.13342117 85.65930551 -0.14791458 97.73606873 -0.155159 C100.86901539 -0.15706882 104.00196204 -0.15898916 107.13490868 -0.16094494 C107.91356464 -0.16142868 108.6922206 -0.16191242 109.49447219 -0.16241082 C122.10370082 -0.17070831 134.7128345 -0.19604107 147.32202168 -0.22852562 C160.27440064 -0.26162163 173.22673139 -0.27961006 186.17915285 -0.28280324 C193.44870161 -0.28496601 200.71811191 -0.29368048 207.9876194 -0.31926441 C214.82812241 -0.34328326 221.66837274 -0.34678114 228.50890923 -0.33650303 C231.01708491 -0.33600738 233.52527283 -0.34233623 236.03341103 -0.35605907 C239.46318137 -0.37377174 242.89205751 -0.36667384 246.32182884 -0.35352612 C247.80318618 -0.36997998 247.80318618 -0.36997998 249.31446993 -0.38676625 C257.42749548 -0.31191678 263.90440318 1.81987539 270.69399071 6.25922108 C280.48603926 16.49636275 281.74323248 26.63593782 281.66762352 40.22015858 C281.6670987 41.64823878 281.66753635 43.07631961 281.66885948 44.5043993 C281.67018883 47.56929012 281.66580771 50.63410048 281.65725517 53.69897938 C281.64483336 58.54902566 281.65184289 63.39892404 281.66267967 68.24896717 C281.69109495 82.03693109 281.70355766 95.82476629 281.67397118 109.6127367 C281.65777621 117.23577127 281.66293392 124.85848169 281.69176745 132.48148251 C281.70604538 136.51104399 281.70911574 140.53993053 281.68554497 144.56946278 C281.66338062 148.3586407 281.66896532 152.14677026 281.69552994 155.93591022 C281.70029055 157.32300399 281.69487127 158.71017743 281.67829895 160.09718037 C281.4253543 168.85790525 281.4253543 168.85790525 285.32967186 176.36859608 C286.8664859 177.86834199 286.8664859 177.86834199 288.44399071 179.13422108 C289.29219383 179.90508045 290.14039696 180.67593983 291.01430321 181.47015858 C293.81414093 183.70489144 296.62004679 185.92998627 299.44399071 188.13422108 C300.37340477 188.8792992 301.30281883 189.62437733 302.26039696 190.39203358 C322.47860487 206.18149119 345.124504 214.22478114 370.01235008 219.48334217 C372.47561595 220.14268623 374.33734497 220.69003897 376.44399071 222.13422108 C378.12314474 225.60083217 378.70452631 228.44299739 378.76283836 232.27460194 C378.78269295 233.27959736 378.80254753 234.28459278 378.82300377 235.32004261 C378.83457008 236.40211994 378.8461364 237.48419727 378.85805321 238.59906483 C378.88730637 240.29855778 378.88730637 240.29855778 378.9171505 242.03238392 C378.97768382 245.71208738 379.02401217 249.39179707 379.06899071 253.07172108 C379.10542123 255.59931527 379.14228726 258.12690322 379.17958641 260.65448475 C379.26639011 266.7567184 379.33988656 272.85901862 379.40755272 278.96149158 C379.43925583 281.72194568 379.47540585 284.4822666 379.51479149 287.24261951 C379.6956871 300.2020596 379.55848496 313.07722949 378.63149071 326.00922108 C378.5264724 327.49772572 378.5264724 327.49772572 378.4193325 329.01630116 C378.05174554 333.40352304 377.65371638 337.43471687 376.38393211 341.66986561 C372.64396882 355.00652383 377.67399379 364.19128611 383.44399071 376.25922108 C384.3777554 378.29304992 385.30716924 380.32888171 386.23232079 382.36664295 C388.07576283 386.41478245 389.93890266 390.45274683 391.82143211 394.48285389 C395.0996551 401.5169316 398.22842594 408.61241831 401.30702782 415.73572254 C402.11073458 417.58642574 402.92855149 419.43098113 403.74672508 421.27533436 C404.22818993 422.37345448 404.70965477 423.47157459 405.20570946 424.60297108 C405.61780663 425.5356078 406.02990379 426.46824451 406.45448875 427.42914295 C407.52683294 430.36069331 408.13875884 433.02777002 408.44399071 436.13422108 C406.31355592 440.69943847 406.31355592 440.69943847 403.44399071 442.13422108 C397.49977936 442.86382713 392.97478421 440.54926297 387.67055321 438.19672108 C386.74680901 437.79719227 385.8230648 437.39766346 384.87132835 436.98602772 C381.93267437 435.71225343 379.00087124 434.4234986 376.06899071 433.13422108 C374.0733306 432.2660361 372.07724123 431.39883714 370.08070946 430.53265858 C365.19677113 428.4112469 360.31836485 426.27750995 355.44399071 424.13422108 C355.3329702 424.97444813 355.22194969 425.81467518 355.10756493 426.68036366 C354.3870336 430.43067886 353.20475518 433.85142328 351.82680321 437.39593983 C351.56898064 438.06841251 351.31115807 438.7408852 351.04552269 439.43373585 C350.50204643 440.84584081 349.95562068 442.25681381 349.40639305 443.66669178 C348.5688775 445.82201242 347.74622535 447.98261974 346.92445946 450.1439867 C346.392797 451.51998181 345.86027436 452.89564494 345.32680321 454.27093983 C345.08293877 454.9147208 344.83907433 455.55850178 344.58782005 456.22179127 C343.32077092 459.43791256 342.22954926 462.00591354 339.44399071 464.13422108 C336.51835861 465.13509522 334.91395 465.26680175 331.92738914 464.42426014 C328.90383266 462.85362777 328.36828189 461.79222938 327.08461571 458.68109608 C326.5004287 457.30159779 326.5004287 457.30159779 325.90443993 455.89423084 C325.50499168 454.90092762 325.10554344 453.9076244 324.69399071 452.88422108 C324.05808006 451.36236195 324.05808006 451.36236195 323.40932274 449.80975819 C322.06980444 446.59158657 320.75587823 443.36374258 319.44399071 440.13422108 C318.56227994 437.99444385 317.67948805 435.85511176 316.79555321 433.71625233 C314.65805829 428.53038879 312.54249944 423.33597444 310.44399071 418.13422108 C306.4349323 419.62702494 302.80631659 421.52005359 299.07680321 423.61078358 C297.8493364 424.28858777 296.62145881 424.96564847 295.39320946 425.64203358 C293.47813552 426.6994725 291.56589975 427.76096384 289.6602993 428.83539295 C287.80636369 429.87838124 285.94282406 430.90211259 284.07680321 431.92328358 C282.97223778 432.53897205 281.86767235 433.15466053 280.72963524 433.78900623 C276.05853227 435.70145811 272.44350391 435.87819706 267.69667625 434.11200428 C266.83340721 433.64109364 265.97013817 433.17018299 265.08070946 432.68500233 C264.11068993 432.16615467 263.14067039 431.64730701 262.14125633 431.1127367 C261.14803368 430.56295155 260.15481102 430.01316639 259.13149071 429.44672108 C257.15664279 428.37955113 255.18138552 427.31313833 253.20570946 426.24750233 C252.33905663 425.77095203 251.47240379 425.29440174 250.57948875 424.80341053 C246.243343 422.49505356 241.84467013 420.31644522 237.44399071 418.13422108 C237.22514717 418.66626652 237.00630363 419.19831196 236.78082848 419.74647999 C234.50232336 425.28173314 232.21339495 430.81259048 229.91835594 436.34100819 C229.06313152 438.40500171 228.21057409 440.47010241 227.36073875 442.53632069 C226.13897478 445.50549957 224.90768546 448.470569 223.67445946 451.43500233 C223.29621529 452.36009098 222.91797112 453.28517963 222.528265 454.23830128 C222.16811806 455.09896702 221.80797112 455.95963276 221.43691063 456.84637928 C220.96725128 457.9822221 220.96725128 457.9822221 220.48810387 459.14101124 C218.87644089 462.2176725 217.3654743 463.81897669 214.06899071 464.94672108 C210.85293677 465.17643922 209.28169079 464.65676059 206.44399071 463.13422108 C205.03774071 460.81854725 205.03774071 460.81854725 203.94399071 457.92718983 C203.5339077 456.87072254 203.12382469 455.81425526 202.70131493 454.72577381 C202.28639793 453.60243641 201.87148094 452.47909901 201.44399071 451.32172108 C201.00973778 450.19000477 200.57548485 449.05828846 200.12807274 447.89227772 C198.88481939 444.6451239 197.6637011 441.39027199 196.44399071 438.13422108 C195.86087239 436.6175092 195.27540538 435.10169519 194.68617821 433.58734608 C193.59224099 430.77436466 192.51050503 427.95767742 191.44399071 425.13422108 C185.69768135 426.8651922 180.248458 429.03423199 174.77602196 431.48968983 C173.74431374 431.95147129 173.74431374 431.95147129 172.69176292 432.42258167 C169.81576069 433.71339951 166.94204245 435.00889352 164.07411766 436.31757069 C161.95825669 437.28075579 159.83651676 438.22985381 157.71352196 439.17718983 C157.07276222 439.47401157 156.43200249 439.77083332 155.77182579 440.07664967 C151.84306652 441.81620832 148.73362163 442.62730416 144.44399071 442.13422108 C141.50649071 440.07172108 141.50649071 440.07172108 139.44399071 437.13422108 C139.72976234 431.48292351 141.5684851 426.88653253 143.82289696 421.79437733 C144.15442268 421.02742039 144.48594841 420.26046345 144.82752037 419.47026539 C145.87923429 417.04220772 146.94263497 414.61947971 148.00649071 412.19672108 C148.72537041 410.54276333 149.44347742 408.88846951 150.16078758 407.23383045 C151.91294148 403.19668505 153.6755888 399.16427421 155.44399071 395.13422108 C154.26730544 395.12925586 154.26730544 395.12925586 153.06684875 395.12419033 C133.95276683 395.04286357 114.83876461 394.95073957 95.72479248 394.84669399 C86.48130627 394.79663633 77.23782862 394.75019277 67.99428368 394.71234608 C59.93479176 394.6793381 51.87536767 394.63945858 43.81595075 394.59143102 C39.55112482 394.56625336 35.28634337 394.54444659 31.02146339 394.53087711 C27.00119281 394.51797711 22.98107548 394.49583844 18.96088982 394.46683788 C17.49122978 394.45782379 16.02154511 394.45208642 14.5518589 394.45000744 C1.97005273 394.42903566 -9.71900084 394.08840447 -19.53257179 385.38031483 C-28.04700543 376.41298578 -29.14563051 366.86142806 -29.06394386 354.90143299 C-29.06855984 353.47686677 -29.07491741 352.05230533 -29.08285284 350.62775373 C-29.09947392 346.73597916 -29.09133302 342.84459944 -29.07890797 338.95282388 C-29.06983002 334.74688023 -29.08384077 330.54100285 -29.09482765 326.33507252 C-29.11258825 318.1046715 -29.10878387 309.87441663 -29.09717709 301.64400995 C-29.08813335 294.95334163 -29.08692284 288.26271419 -29.09127235 281.57204151 C-29.09188529 280.61878401 -29.09249822 279.66552651 -29.09312972 278.68338242 C-29.09440866 276.74669006 -29.09570552 274.80999772 -29.09702009 272.87330538 C-29.10841868 254.72476354 -29.09532349 236.57630259 -29.07381862 218.42777401 C-29.0559483 202.86487602 -29.05905261 187.30209738 -29.07749367 171.73920155 C-29.09891311 153.65437179 -29.10732011 135.56961288 -29.09504461 117.48477221 C-29.09377045 115.55531503 -29.09251297 113.62585784 -29.09127235 111.69640064 C-29.09065525 110.7471396 -29.09003815 109.79787855 -29.08940235 108.81985202 C-29.08595267 102.13937148 -29.09176955 95.45893598 -29.10119057 88.77846241 C-29.11242385 80.63409266 -29.10934256 72.48987706 -29.08806759 64.34552491 C-29.07757505 60.19233381 -29.07340455 56.03939948 -29.0866642 51.88621044 C-29.0986314 48.08020375 -29.09195501 44.27469051 -29.07075399 40.46872824 C-29.06420801 38.44853078 -29.07718524 36.42829875 -29.09098291 34.4081378 C-29.00059985 23.87586995 -26.88240317 15.69211671 -19.55600929 7.89203358 C-13.8455578 2.87308207 -7.60166907 0.01723309 0 0 Z " fill="#ACA3DE" transform="translate(67.55600929260254,23.865778923034668)"/>
<path d="M0 0 C0.91444685 -0.00445784 1.82889369 -0.00891569 2.77105105 -0.01350862 C4.27248488 -0.01323207 4.27248488 -0.01323207 5.80425072 -0.01294994 C6.87050348 -0.01662663 7.93675624 -0.02030332 9.03531969 -0.02409142 C12.62027867 -0.03513425 16.20520867 -0.03897314 19.79018211 -0.04278088 C22.35579585 -0.04904507 24.92140867 -0.05569183 27.48702049 -0.0626936 C35.19477293 -0.08192411 42.90252028 -0.09252235 50.61029059 -0.10142139 C54.24212801 -0.10580697 57.87396397 -0.11117309 61.50580025 -0.11641026 C73.58255333 -0.13342117 85.65930551 -0.14791458 97.73606873 -0.155159 C100.86901539 -0.15706882 104.00196204 -0.15898916 107.13490868 -0.16094494 C107.91356464 -0.16142868 108.6922206 -0.16191242 109.49447219 -0.16241082 C122.10370082 -0.17070831 134.7128345 -0.19604107 147.32202168 -0.22852562 C160.27440064 -0.26162163 173.22673139 -0.27961006 186.17915285 -0.28280324 C193.44870161 -0.28496601 200.71811191 -0.29368048 207.9876194 -0.31926441 C214.82812241 -0.34328326 221.66837274 -0.34678114 228.50890923 -0.33650303 C231.01708491 -0.33600738 233.52527283 -0.34233623 236.03341103 -0.35605907 C239.46318137 -0.37377174 242.89205751 -0.36667384 246.32182884 -0.35352612 C247.80318618 -0.36997998 247.80318618 -0.36997998 249.31446993 -0.38676625 C257.42749548 -0.31191678 263.90440318 1.81987539 270.69399071 6.25922108 C280.48603926 16.49636275 281.74323248 26.63593782 281.66762352 40.22015858 C281.6670987 41.64823878 281.66753635 43.07631961 281.66885948 44.5043993 C281.67018883 47.56929012 281.66580771 50.63410048 281.65725517 53.69897938 C281.64483336 58.54902566 281.65184289 63.39892404 281.66267967 68.24896717 C281.69109495 82.03693109 281.70355766 95.82476629 281.67397118 109.6127367 C281.65777621 117.23577127 281.66293392 124.85848169 281.69176745 132.48148251 C281.70604538 136.51104399 281.70911574 140.53993053 281.68554497 144.56946278 C281.66338062 148.3586407 281.66896532 152.14677026 281.69552994 155.93591022 C281.70029055 157.32300399 281.69487127 158.71017743 281.67829895 160.09718037 C281.4253543 168.85790525 281.4253543 168.85790525 285.32967186 176.36859608 C286.8664859 177.86834199 286.8664859 177.86834199 288.44399071 179.13422108 C289.29219383 179.90508045 290.14039696 180.67593983 291.01430321 181.47015858 C293.81414093 183.70489144 296.62004679 185.92998627 299.44399071 188.13422108 C300.37340477 188.8792992 301.30281883 189.62437733 302.26039696 190.39203358 C322.47860487 206.18149119 345.124504 214.22478114 370.01235008 219.48334217 C372.47561595 220.14268623 374.33734497 220.69003897 376.44399071 222.13422108 C378.12314474 225.60083217 378.70452631 228.44299739 378.76283836 232.27460194 C378.78269295 233.27959736 378.80254753 234.28459278 378.82300377 235.32004261 C378.83457008 236.40211994 378.8461364 237.48419727 378.85805321 238.59906483 C378.88730637 240.29855778 378.88730637 240.29855778 378.9171505 242.03238392 C378.97768382 245.71208738 379.02401217 249.39179707 379.06899071 253.07172108 C379.10542123 255.59931527 379.14228726 258.12690322 379.17958641 260.65448475 C379.26639011 266.7567184 379.33988656 272.85901862 379.40755272 278.96149158 C379.43925583 281.72194568 379.47540585 284.4822666 379.51479149 287.24261951 C379.6956871 300.2020596 379.55848496 313.07722949 378.63149071 326.00922108 C378.5264724 327.49772572 378.5264724 327.49772572 378.4193325 329.01630116 C378.05174554 333.40352304 377.65371638 337.43471687 376.38393211 341.66986561 C372.64396882 355.00652383 377.67399379 364.19128611 383.44399071 376.25922108 C384.3777554 378.29304992 385.30716924 380.32888171 386.23232079 382.36664295 C388.07576283 386.41478245 389.93890266 390.45274683 391.82143211 394.48285389 C395.0996551 401.5169316 398.22842594 408.61241831 401.30702782 415.73572254 C402.11073458 417.58642574 402.92855149 419.43098113 403.74672508 421.27533436 C404.22818993 422.37345448 404.70965477 423.47157459 405.20570946 424.60297108 C405.61780663 425.5356078 406.02990379 426.46824451 406.45448875 427.42914295 C407.52683294 430.36069331 408.13875884 433.02777002 408.44399071 436.13422108 C406.31355592 440.69943847 406.31355592 440.69943847 403.44399071 442.13422108 C397.49977936 442.86382713 392.97478421 440.54926297 387.67055321 438.19672108 C386.74680901 437.79719227 385.8230648 437.39766346 384.87132835 436.98602772 C381.93267437 435.71225343 379.00087124 434.4234986 376.06899071 433.13422108 C374.0733306 432.2660361 372.07724123 431.39883714 370.08070946 430.53265858 C365.19677113 428.4112469 360.31836485 426.27750995 355.44399071 424.13422108 C355.3329702 424.97444813 355.22194969 425.81467518 355.10756493 426.68036366 C354.3870336 430.43067886 353.20475518 433.85142328 351.82680321 437.39593983 C351.56898064 438.06841251 351.31115807 438.7408852 351.04552269 439.43373585 C350.50204643 440.84584081 349.95562068 442.25681381 349.40639305 443.66669178 C348.5688775 445.82201242 347.74622535 447.98261974 346.92445946 450.1439867 C346.392797 451.51998181 345.86027436 452.89564494 345.32680321 454.27093983 C345.08293877 454.9147208 344.83907433 455.55850178 344.58782005 456.22179127 C343.32077092 459.43791256 342.22954926 462.00591354 339.44399071 464.13422108 C336.51835861 465.13509522 334.91395 465.26680175 331.92738914 464.42426014 C328.90383266 462.85362777 328.36828189 461.79222938 327.08461571 458.68109608 C326.5004287 457.30159779 326.5004287 457.30159779 325.90443993 455.89423084 C325.50499168 454.90092762 325.10554344 453.9076244 324.69399071 452.88422108 C324.05808006 451.36236195 324.05808006 451.36236195 323.40932274 449.80975819 C322.06980444 446.59158657 320.75587823 443.36374258 319.44399071 440.13422108 C318.56227994 437.99444385 317.67948805 435.85511176 316.79555321 433.71625233 C314.65805829 428.53038879 312.54249944 423.33597444 310.44399071 418.13422108 C306.4349323 419.62702494 302.80631659 421.52005359 299.07680321 423.61078358 C297.8493364 424.28858777 296.62145881 424.96564847 295.39320946 425.64203358 C293.47813552 426.6994725 291.56589975 427.76096384 289.6602993 428.83539295 C287.80636369 429.87838124 285.94282406 430.90211259 284.07680321 431.92328358 C282.97223778 432.53897205 281.86767235 433.15466053 280.72963524 433.78900623 C276.05853227 435.70145811 272.44350391 435.87819706 267.69667625 434.11200428 C266.83340721 433.64109364 265.97013817 433.17018299 265.08070946 432.68500233 C264.11068993 432.16615467 263.14067039 431.64730701 262.14125633 431.1127367 C261.14803368 430.56295155 260.15481102 430.01316639 259.13149071 429.44672108 C257.15664279 428.37955113 255.18138552 427.31313833 253.20570946 426.24750233 C252.33905663 425.77095203 251.47240379 425.29440174 250.57948875 424.80341053 C246.243343 422.49505356 241.84467013 420.31644522 237.44399071 418.13422108 C237.22514717 418.66626652 237.00630363 419.19831196 236.78082848 419.74647999 C234.50232336 425.28173314 232.21339495 430.81259048 229.91835594 436.34100819 C229.06313152 438.40500171 228.21057409 440.47010241 227.36073875 442.53632069 C226.13897478 445.50549957 224.90768546 448.470569 223.67445946 451.43500233 C223.29621529 452.36009098 222.91797112 453.28517963 222.528265 454.23830128 C222.16811806 455.09896702 221.80797112 455.95963276 221.43691063 456.84637928 C220.96725128 457.9822221 220.96725128 457.9822221 220.48810387 459.14101124 C218.87644089 462.2176725 217.3654743 463.81897669 214.06899071 464.94672108 C210.85293677 465.17643922 209.28169079 464.65676059 206.44399071 463.13422108 C205.03774071 460.81854725 205.03774071 460.81854725 203.94399071 457.92718983 C203.5339077 456.87072254 203.12382469 455.81425526 202.70131493 454.72577381 C202.28639793 453.60243641 201.87148094 452.47909901 201.44399071 451.32172108 C201.00973778 450.19000477 200.57548485 449.05828846 200.12807274 447.89227772 C198.88481939 444.6451239 197.6637011 441.39027199 196.44399071 438.13422108 C195.86087239 436.6175092 195.27540538 435.10169519 194.68617821 433.58734608 C193.59224099 430.77436466 192.51050503 427.95767742 191.44399071 425.13422108 C185.69768135 426.8651922 180.248458 429.03423199 174.77602196 431.48968983 C173.74431374 431.95147129 173.74431374 431.95147129 172.69176292 432.42258167 C169.81576069 433.71339951 166.94204245 435.00889352 164.07411766 436.31757069 C161.95825669 437.28075579 159.83651676 438.22985381 157.71352196 439.17718983 C157.07276222 439.47401157 156.43200249 439.77083332 155.77182579 440.07664967 C151.84306652 441.81620832 148.73362163 442.62730416 144.44399071 442.13422108 C141.50649071 440.07172108 141.50649071 440.07172108 139.44399071 437.13422108 C139.72976234 431.48292351 141.5684851 426.88653253 143.82289696 421.79437733 C144.15442268 421.02742039 144.48594841 420.26046345 144.82752037 419.47026539 C145.87923429 417.04220772 146.94263497 414.61947971 148.00649071 412.19672108 C148.72537041 410.54276333 149.44347742 408.88846951 150.16078758 407.23383045 C151.91294148 403.19668505 153.6755888 399.16427421 155.44399071 395.13422108 C154.26730544 395.12925586 154.26730544 395.12925586 153.06684875 395.12419033 C133.95276683 395.04286357 114.83876461 394.95073957 95.72479248 394.84669399 C86.48130627 394.79663633 77.23782862 394.75019277 67.99428368 394.71234608 C59.93479176 394.6793381 51.87536767 394.63945858 43.81595075 394.59143102 C39.55112482 394.56625336 35.28634337 394.54444659 31.02146339 394.53087711 C27.00119281 394.51797711 22.98107548 394.49583844 18.96088982 394.46683788 C17.49122978 394.45782379 16.02154511 394.45208642 14.5518589 394.45000744 C1.97005273 394.42903566 -9.71900084 394.08840447 -19.53257179 385.38031483 C-28.04700543 376.41298578 -29.14563051 366.86142806 -29.06394386 354.90143299 C-29.06855984 353.47686677 -29.07491741 352.05230533 -29.08285284 350.62775373 C-29.09947392 346.73597916 -29.09133302 342.84459944 -29.07890797 338.95282388 C-29.06983002 334.74688023 -29.08384077 330.54100285 -29.09482765 326.33507252 C-29.11258825 318.1046715 -29.10878387 309.87441663 -29.09717709 301.64400995 C-29.08813335 294.95334163 -29.08692284 288.26271419 -29.09127235 281.57204151 C-29.09188529 280.61878401 -29.09249822 279.66552651 -29.09312972 278.68338242 C-29.09440866 276.74669006 -29.09570552 274.80999772 -29.09702009 272.87330538 C-29.10841868 254.72476354 -29.09532349 236.57630259 -29.07381862 218.42777401 C-29.0559483 202.86487602 -29.05905261 187.30209738 -29.07749367 171.73920155 C-29.09891311 153.65437179 -29.10732011 135.56961288 -29.09504461 117.48477221 C-29.09377045 115.55531503 -29.09251297 113.62585784 -29.09127235 111.69640064 C-29.09065525 110.7471396 -29.09003815 109.79787855 -29.08940235 108.81985202 C-29.08595267 102.13937148 -29.09176955 95.45893598 -29.10119057 88.77846241 C-29.11242385 80.63409266 -29.10934256 72.48987706 -29.08806759 64.34552491 C-29.07757505 60.19233381 -29.07340455 56.03939948 -29.0866642 51.88621044 C-29.0986314 48.08020375 -29.09195501 44.27469051 -29.07075399 40.46872824 C-29.06420801 38.44853078 -29.07718524 36.42829875 -29.09098291 34.4081378 C-29.00059985 23.87586995 -26.88240317 15.69211671 -19.55600929 7.89203358 C-13.8455578 2.87308207 -7.60166907 0.01723309 0 0 Z M-10.86850929 20.63422108 C-13.76553876 24.92611659 -14.80604485 27.64117015 -14.8132782 32.88273716 C-14.81972709 34.06315547 -14.82617598 35.24357378 -14.8328203 36.45976233 C-14.82972309 37.75779454 -14.82662589 39.05582674 -14.82343483 40.39319324 C-14.82717061 41.78512896 -14.83177184 43.17706258 -14.83716547 44.56899285 C-14.84942016 48.39826649 -14.84913211 52.22745293 -14.84677672 56.05674171 C-14.84636917 60.18502943 -14.85740186 64.31328897 -14.86689186 68.44156361 C-14.88351687 76.53170335 -14.8890021 84.62181395 -14.89011662 92.71196935 C-14.89106648 99.28789718 -14.89517368 105.86381539 -14.90151787 112.43974018 C-14.91913517 131.07967177 -14.92835609 149.71958031 -14.92685692 168.35952029 C-14.92677701 169.36476139 -14.9266971 170.3700025 -14.92661476 171.40570545 C-14.926533 172.41217276 -14.92645124 173.41864006 -14.926367 174.45560637 C-14.92555419 190.76503349 -14.94468934 207.07436824 -14.97289149 223.38376865 C-15.00161418 240.12620423 -15.0154321 256.86859476 -15.01370394 273.61105561 C-15.01303978 283.01221665 -15.0185435 292.41328088 -15.04006004 301.81441975 C-15.05826385 309.81954024 -15.06262586 317.82452006 -15.0490412 325.82965228 C-15.04250718 329.91370705 -15.04240975 333.99749188 -15.0597477 338.08152103 C-15.07546485 341.82226696 -15.07262905 345.56252861 -15.05517943 349.30326262 C-15.05065364 351.29342491 -15.06577764 353.28360213 -15.08165872 355.2737062 C-15.02328179 362.83200357 -14.60181133 369.00992385 -9.03792131 374.68176246 C-4.46532705 378.6369988 -1.95847491 379.25895898 3.98650169 379.25447559 C5.00586951 379.25575723 5.00586951 379.25575723 6.04583061 379.25706476 C8.33368774 379.25871804 10.62147231 379.25320066 12.90932274 379.24774647 C14.54506491 379.24746454 16.18080721 379.24762244 17.8165493 379.24818897 C22.26671318 379.24847672 26.71685028 379.24258366 31.16700792 379.23561502 C35.81417424 379.2293777 40.46134112 379.22877738 45.10851097 379.22758961 C53.91285978 379.22447741 62.71719622 379.21626552 71.52153957 379.20624012 C81.54315901 379.19507552 91.56477903 379.18956766 101.58640313 379.18454468 C122.2056059 379.17408282 142.82479753 379.15648553 163.44399071 379.13422108 C164.04147118 377.93817249 164.04147118 377.93817249 164.65102196 376.71796131 C165.18082664 375.65778797 165.71063133 374.59761463 166.25649071 373.50531483 C167.03959618 371.93801624 167.03959618 371.93801624 167.83852196 370.33905506 C168.90654678 368.20706573 169.98261829 366.07908797 171.06679344 363.955266 C174.34754384 357.38387817 174.76866204 352.86118583 173.19894981 345.71397877 C170.82768251 334.4702408 170.15070368 323.46325339 170.21352196 311.98968983 C170.21425397 310.57747892 170.21419294 309.1652674 170.21339989 307.75305653 C170.21422742 304.03719683 170.22814896 300.32151063 170.24614906 296.60569859 C170.25654249 294.31028563 170.26368351 292.01488485 170.26976585 289.71945667 C170.36242551 255.47488668 170.36242551 255.47488668 170.70946312 240.17148304 C170.74054852 238.7835329 170.76733737 237.39547916 170.78960228 236.0073595 C170.8218904 234.16259749 170.87626469 232.31825912 170.93227196 230.47406483 C170.95845604 229.49816395 170.98464012 228.52226307 171.01161766 227.51678944 C171.52600697 224.68227489 172.11114697 223.79203617 174.44399071 222.13422108 C176.40736961 221.49335194 176.40736961 221.49335194 178.67055321 221.09906483 C179.52504051 220.93503162 180.37952782 220.77099842 181.25990868 220.60199451 C182.18690575 220.42700428 183.11390282 220.25201405 184.06899071 220.07172108 C212.75634163 214.07706384 238.30150854 200.2988213 259.44399071 180.13422108 C260.01790896 179.71899409 260.59182722 179.30376711 261.18313694 178.87595749 C264.40803779 176.27828495 266.19578397 174.2657879 267.09724426 170.15605831 C267.34878459 166.38856223 267.3798628 162.6529108 267.33388329 158.88055897 C267.34174 157.43437832 267.35258738 155.9882113 267.36618614 154.54207325 C267.39374616 150.62839827 267.37738588 146.71605113 267.35133767 142.80241036 C267.32982965 138.69818516 267.34340677 134.59404956 267.35162926 130.48979664 C267.35978081 123.59737719 267.33916257 116.70548852 267.30165672 109.81317616 C267.25873892 101.85749474 267.26225526 93.90285472 267.2905243 85.94713122 C267.31660786 78.2791606 267.30871522 70.61157502 267.28582382 62.94360638 C267.27674981 59.68731999 267.27963636 56.43137348 267.29232788 53.17510128 C267.30582245 49.33574535 267.28949731 45.49761476 267.25069046 41.6584425 C267.24120399 40.2540661 267.24177094 38.84957811 267.25343132 37.44521809 C267.30818576 30.06136334 267.15299342 24.49547741 262.31457615 18.67153549 C256.48323818 13.87913215 251.27952105 13.70192872 244.05081749 13.74654102 C242.482452 13.73846272 242.482452 13.73846272 240.88240236 13.73022121 C237.37945591 13.71591572 233.87688596 13.72305194 230.37392235 13.73016834 C227.86225645 13.72446616 225.35059315 13.71750249 222.83893394 13.70937061 C216.7252451 13.69327335 210.61169525 13.69134192 204.49799163 13.69658352 C199.5282182 13.70062697 194.55847513 13.69917959 189.58870316 13.69383526 C188.88104468 13.69308684 188.1733862 13.69233841 187.44428353 13.69156731 C186.00662084 13.69003582 184.56895816 13.68849747 183.13129549 13.68695235 C169.653087 13.67322845 156.17493658 13.67866424 142.69672941 13.69013756 C130.37011612 13.7000702 118.04365292 13.68712859 105.71706278 13.66320337 C93.05503445 13.63881253 80.39307603 13.62920442 67.73102468 13.63585609 C60.62426065 13.63934831 53.51761205 13.63711612 46.41086578 13.61960506 C39.72872013 13.60334423 33.04690707 13.6080644 26.36475372 13.62691021 C23.91176471 13.63060283 21.45875455 13.62746814 19.00578499 13.61702442 C15.65823989 13.60385964 12.31165131 13.61532319 8.96414757 13.63301563 C7.99254741 13.62341063 7.02094726 13.61380562 6.01990467 13.60390955 C-1.23560678 13.68285497 -5.79479154 15.14912081 -10.86850929 20.63422108 Z " fill="#010100" transform="translate(67.55600929260254,23.865778923034668)"/>
<path d="M0 0 C29.83544559 -0.09124814 59.67088648 -0.16203753 89.50644154 -0.20426132 C93.02870865 -0.20926415 96.55097549 -0.21444144 100.07324219 -0.21972656 C100.7744628 -0.2207758 101.47568341 -0.22182505 102.19815312 -0.22290608 C113.55259647 -0.24031187 124.90695881 -0.27185048 136.2613541 -0.30861118 C147.9118076 -0.34601584 159.56221385 -0.36793542 171.21272457 -0.37635398 C177.75675649 -0.38157398 184.30060468 -0.39386398 190.84457779 -0.42292023 C197.0021253 -0.45003956 203.15941313 -0.45845191 209.31701469 -0.45243073 C211.57853925 -0.45353251 213.84007236 -0.46150685 216.10154533 -0.4768219 C219.18700521 -0.49669478 222.27148195 -0.49194849 225.35696411 -0.48101807 C226.25385991 -0.49266943 227.15075571 -0.5043208 228.07483017 -0.51632524 C234.84886702 -0.45136814 238.5197823 1.4778283 243.33273315 6.37219238 C245.95839948 12.0853824 245.64318409 17.84732716 245.67626953 24.04492188 C245.69807975 25.48122465 245.72142531 26.91750481 245.7461853 28.35375977 C245.80704264 32.24673483 245.84119666 36.13947407 245.86661768 40.03282738 C245.88282707 42.47094107 245.90318989 44.90898842 245.92464828 47.34706116 C245.99005838 54.99193864 246.03785988 62.63665298 246.06227601 70.28177214 C246.09073586 79.07616129 246.17831132 87.86732629 246.31727898 96.66064787 C246.42124832 103.47711066 246.47065332 110.29266294 246.47992027 117.10990572 C246.48668236 121.17269998 246.5158166 125.23223203 246.60248184 129.29417419 C247.166675 157.23336194 247.166675 157.23336194 240.23982048 164.99420929 C237.91268511 167.14959958 235.53110409 169.02200008 232.87825012 170.75928688 C230.2136198 172.51945809 227.76878382 174.52718519 225.28274345 176.52784538 C206.64739286 191.38700509 183.15062426 200.97033036 159.91699219 205.41723633 C159.05235352 205.58634521 158.18771484 205.7554541 157.296875 205.9296875 C156.53729492 206.06616699 155.77771484 206.20264648 154.99511719 206.34326172 C152.49086629 207.16759296 151.59853977 207.8914023 150 210 C149.49131112 212.94121872 149.49131112 212.94121872 149.49047852 216.35498047 C149.46373582 217.32008734 149.46373582 217.32008734 149.43645287 218.30469131 C149.38152405 220.45046518 149.34853636 222.59595961 149.31640625 224.7421875 C149.28361399 226.26530612 149.25003375 227.78840796 149.2157135 229.31149292 C148.85966658 246.41772803 148.88415995 263.52920345 148.93133545 280.63818359 C148.9418437 284.87727322 148.94618985 289.11636967 148.95117188 293.35546875 C148.96167591 301.57032997 148.9785786 309.78516 149 318 C146.01835683 316.60941509 143.04018181 315.21154484 140.0625 313.8125 C139.23169922 313.42513672 138.40089844 313.03777344 137.54492188 312.63867188 C135.01797476 311.44894191 132.50671504 310.23175209 130 309 C129.13842285 308.58476074 128.2768457 308.16952148 127.38916016 307.74169922 C126.16592041 307.11739014 126.16592041 307.11739014 124.91796875 306.48046875 C124.18215576 306.11203857 123.44634277 305.7436084 122.68823242 305.36401367 C121 304 121 304 120.37133789 301.73364258 C120.25 299.5 120.25 299.5 120.390625 297.28125 C119.75980823 293.59728008 117.90829047 292.2180562 115 290 C111.56431761 289.51646691 111.56431761 289.51646691 107.875 289.75 C99.24342804 289.66774434 94.94181284 285.88504393 89 280 C87.44499084 278.65793795 85.88325016 277.32360416 84.3125 276 C83.18623443 275.02495646 82.07316949 274.03319469 81 273 C81 272.67 81 272.34 81 272 C82.13018555 271.98541748 83.26037109 271.97083496 84.42480469 271.95581055 C88.62206499 271.89779315 92.81879073 271.82056063 97.015625 271.73754883 C98.83129189 271.70431564 100.64706168 271.67627866 102.46289062 271.65356445 C105.07466442 271.61998859 107.68549654 271.56767238 110.296875 271.51171875 C111.10743347 271.50532883 111.91799194 271.4989389 112.75311279 271.49235535 C116.04570188 271.4066549 118.56803744 271.22576046 121.51269531 269.68676758 C123.33670849 267.92906017 123.33670849 267.92906017 123.5 264.5 C123.36034744 261.01747706 123.36034744 261.01747706 121.28930664 259.29438782 C118.54943557 257.74524815 117.00020136 257.68115707 113.87109375 257.78979492 C112.84902832 257.81518845 111.82696289 257.84058197 110.77392578 257.866745 C109.67290527 257.90427383 108.57188477 257.94180267 107.4375 257.98046875 C105.08988611 258.01181539 102.7422239 258.03969793 100.39453125 258.06445312 C96.70372184 258.11561237 93.01845732 258.18684072 89.32958984 258.31860352 C67.7170434 259.03805278 67.7170434 259.03805278 61.85644531 254.11083984 C59.1373988 251.253333 56.99957784 248.13968702 55.01782227 244.73745728 C53.66139852 242.42199574 52.0481382 240.33460951 50.421875 238.203125 C49.52276843 236.89118921 48.63161089 235.57375617 47.75 234.25 C47.04423828 233.22519531 47.04423828 233.22519531 46.32421875 232.1796875 C43 227.27573797 43 227.27573797 43 225 C46.96 224.01 46.96 224.01 51 223 C51.268125 221.7625 51.53625 220.525 51.8125 219.25 C51.96332031 218.55390625 52.11414063 217.8578125 52.26953125 217.140625 C52.17665556 214.75604173 52.17665556 214.75604173 49.9296875 212.70703125 C46.27334105 210.57660005 44.46386961 210.98656735 40.3125 211.4375 C36.5859375 211.29296875 36.5859375 211.29296875 33 210 C25.30448164 201.59048959 21.93700988 188.42625996 18 178 C19.3317627 177.98598145 19.3317627 177.98598145 20.69042969 177.97167969 C23.99345919 177.92759319 27.29520007 177.86595254 30.59765625 177.79248047 C32.02526937 177.76430389 33.45303753 177.74307273 34.88085938 177.72900391 C36.93700332 177.70752608 38.99129002 177.66086026 41.046875 177.609375 C42.28276367 177.58842773 43.51865234 177.56748047 44.79199219 177.54589844 C48.53886758 176.90830229 49.78497046 176.04687469 52 173 C52 169.6541309 51.76731277 167.8125972 49.44042969 165.34838867 C46.01986973 163.45845743 42.76617203 163.52098881 38.953125 163.48828125 C38.18192322 163.47033005 37.41072144 163.45237885 36.6161499 163.43388367 C34.16082168 163.37984231 31.70568714 163.3459058 29.25 163.3125 C27.58200434 163.27932136 25.91403421 163.24483118 24.24609375 163.20898438 C20.1642024 163.12411978 16.08236786 163.05727974 12 163 C11.17898686 160.8156809 10.36857518 158.62737564 9.5625 156.4375 C9.11003906 155.21933594 8.65757813 154.00117188 8.19140625 152.74609375 C7.04171308 149.13115687 6.48877448 145.75119694 6 142 C7.32218395 141.99780016 7.32218395 141.99780016 8.67107868 141.99555588 C30.14723522 141.95845799 51.62323431 141.89940366 73.09926319 141.81609726 C83.48504193 141.77633645 93.87074522 141.74392892 104.2565918 141.72900391 C113.31192292 141.71597207 122.36708782 141.68896827 131.42232531 141.64538693 C136.21429073 141.62280662 141.00605139 141.60708726 145.79807472 141.60811615 C150.31502809 141.60886479 154.83152944 141.59083246 159.34836578 141.55883217 C160.9998207 141.55036289 162.65132649 141.5485629 164.3027935 141.55419731 C179.11592702 141.7524462 179.11592702 141.7524462 191.98972797 135.25017929 C197.17990121 129.68081022 198.2998649 124.26730463 198.30639648 116.77246094 C198.31888176 115.54947044 198.31888176 115.54947044 198.33161926 114.30177307 C198.35566748 111.61259143 198.36448577 108.9236527 198.37109375 106.234375 C198.38006525 104.35736013 198.38918719 102.48034597 198.39845276 100.60333252 C198.41493211 96.66929388 198.42264074 92.73534022 198.42553711 88.80126953 C198.43091445 83.77649946 198.46857219 78.75253575 198.51428127 73.72799301 C198.54412439 69.85019057 198.55126227 65.97258042 198.55226326 62.09467316 C198.55645251 60.24321049 198.56883446 58.39174656 198.58978081 56.54039764 C199.14481933 42.80372695 199.14481933 42.80372695 193 31 C186.74076549 26.03791448 181.79853643 24.87659796 173.84648132 24.86628723 C172.76458006 24.8628889 172.76458006 24.8628889 171.66082221 24.85942191 C169.24351038 24.85309087 166.82625475 24.8539107 164.40893555 24.85473633 C162.67588224 24.85174425 160.9428296 24.84834161 159.20977783 24.84455872 C154.50101362 24.83571884 149.79226757 24.83338059 145.08349586 24.83274293 C141.15216372 24.83179347 137.22083581 24.82811469 133.2895053 24.82457083 C124.01306971 24.81642611 114.73664383 24.81398659 105.46020508 24.81469727 C95.89335428 24.81529789 86.32655989 24.80474913 76.75972337 24.7889536 C68.54473661 24.77587375 60.32976828 24.77051357 52.11477119 24.77115268 C47.20900319 24.77140756 42.30328531 24.76856185 37.39752769 24.75797462 C32.78219888 24.74828633 28.16696803 24.74821951 23.55163574 24.75549126 C21.85977345 24.75653623 20.16790504 24.75417941 18.47605324 24.7481308 C16.16207735 24.74039532 13.84843841 24.74506585 11.5344696 24.75276184 C10.24085856 24.75221707 8.94724752 24.75167231 7.61443615 24.75111103 C3.74141297 25.01780622 0.67547112 25.80536083 -3 27 C-2.88247123 24.93706078 -2.75543129 22.87466365 -2.625 20.8125 C-2.55539063 19.66394531 -2.48578125 18.51539062 -2.4140625 17.33203125 C-2.11691365 13.60024249 -1.55239569 9.92716194 -0.97412109 6.22924805 C-0.79223236 5.06177536 -0.61034363 3.89430267 -0.42294312 2.69145203 C-0.28337189 1.80327286 -0.14380066 0.91509369 0 0 Z " fill="#CBCBFE" transform="translate(89,39)"/>
<path d="M0 0 C0.71829638 -0.00367669 1.43659277 -0.00735338 2.17665571 -0.01114148 C4.59006263 -0.02217805 7.00342648 -0.02602216 9.41685486 -0.02983093 C11.14489377 -0.03609576 12.87293133 -0.04274258 14.60096741 -0.04974365 C20.28299521 -0.07078957 25.96502329 -0.08114863 31.64707947 -0.09111023 C33.60418143 -0.09515802 35.56128326 -0.09927494 37.51838493 -0.10346031 C46.71597378 -0.12251556 55.91355459 -0.13674417 65.11115938 -0.14507228 C75.71996868 -0.15483711 86.3285689 -0.18113556 96.93730456 -0.22157317 C105.14127688 -0.25176834 113.34518941 -0.26654451 121.54921621 -0.26985329 C126.44678517 -0.2722005 131.34413087 -0.28111767 136.24164009 -0.30631447 C140.85375887 -0.32965877 145.46550842 -0.33380293 150.07767105 -0.32355309 C151.76505832 -0.32305911 153.45246415 -0.32933864 155.1397953 -0.34310913 C174.60678375 -0.49301455 174.60678375 -0.49301455 181.58302402 5.52375317 C186.73655908 11.2805398 188.43574174 16.9397376 188.39097595 24.50410461 C188.3978392 25.32118393 188.40470245 26.13826324 188.41177368 26.98010254 C188.43000577 29.66878364 188.4262089 32.35687913 188.42051697 35.04560852 C188.42508096 36.92359099 188.43038718 38.80157179 188.43640137 40.67955017 C188.44532578 44.61186007 188.44291751 48.54396682 188.43296814 52.47627258 C188.42148773 57.50215424 188.44167913 62.52733232 188.47088528 67.55312157 C188.48928098 71.43089718 188.48894796 75.30850531 188.48324776 79.18631363 C188.48309491 81.03857535 188.48910887 82.89084868 188.50153923 84.7430687 C188.51650894 87.33963661 188.50572857 89.93491915 188.4886322 92.53144836 C188.50313416 93.66638481 188.50313416 93.66638481 188.51792908 94.82424927 C188.43073367 101.18629952 186.41424987 106.33429583 182.24082947 111.17060852 C181.68266541 111.61662415 181.12450134 112.06263977 180.54942322 112.52217102 C179.99383728 112.9836554 179.43825134 113.44513977 178.86582947 113.92060852 C174.16990431 116.9861397 170.1266359 117.40173846 164.56802368 117.42132568 C163.83027311 117.42656236 163.09252253 117.43179904 162.33241588 117.43719441 C159.86522709 117.45217237 157.39824611 117.45289907 154.93101501 117.4535675 C153.16002554 117.46119047 151.38903938 117.46961821 149.61805725 117.47879028 C144.81011188 117.50072854 140.0022301 117.50953328 135.19424033 117.51461673 C132.18918654 117.51826108 129.18414939 117.52450155 126.17910194 117.53161812 C115.69193923 117.55611023 105.20482596 117.56916401 94.71763611 117.57270813 C84.94788188 117.57634326 75.17844182 117.60623765 65.40878361 117.64811271 C57.0162596 117.68282177 48.62383968 117.69825668 40.23124439 117.69895416 C35.22083127 117.69974676 30.21073824 117.70847767 25.2003994 117.73695183 C20.48641073 117.76314298 15.7730073 117.76533184 11.05897903 117.74929619 C9.33204814 117.74748254 7.60508351 117.75416491 5.87822533 117.7701149 C-11.01648674 117.91660791 -11.01648674 117.91660791 -17.01307678 112.14717102 C-22.40857824 106.4676958 -23.31305791 101.27577256 -23.31947327 93.62837219 C-23.32779678 92.78217819 -23.3361203 91.93598419 -23.34469604 91.06414795 C-23.36874825 88.27276477 -23.37756249 85.48161552 -23.38417053 82.69013977 C-23.39314079 80.74346854 -23.40226271 78.79679801 -23.41152954 76.85012817 C-23.42800931 72.77065864 -23.43571776 68.69127107 -23.43861389 64.61177063 C-23.44399533 59.39634468 -23.48167003 54.18169409 -23.52735806 48.96648693 C-23.55716962 44.94546732 -23.56433835 40.92463346 -23.56534004 36.90351295 C-23.56953451 34.98144799 -23.58193763 33.05938207 -23.60285759 31.13742638 C-23.62985612 28.44242988 -23.62492175 25.74921823 -23.61244202 23.05415344 C-23.62727631 22.26790588 -23.6421106 21.48165833 -23.65739441 20.67158508 C-23.57945211 14.73056462 -21.69117884 10.78883047 -18.01307678 6.14717102 C-15.88026428 4.30732727 -15.88026428 4.30732727 -13.88807678 3.20967102 C-13.22549866 2.82939758 -12.56292053 2.44912415 -11.88026428 2.05732727 C-7.80528346 0.07098725 -4.48667633 0.01486906 0 0 Z " fill="#65FDCA" transform="translate(100.01307678222656,62.85282897949219)"/>
<path d="M0 0 C0.62962646 0.54853638 0.62962646 0.54853638 1.27197266 1.1081543 C21.11132937 18.26955419 42.23730546 30.26946775 68 36 C68.96113851 48.12317509 69.1862694 60.19604022 69.18530273 72.35375977 C69.18749419 75.42933914 69.20574117 78.50456149 69.22460938 81.58007812 C69.29176075 104.83640982 68.13510424 126.82418828 51.4296875 144.59765625 C38.70400256 157.18012608 22.34361225 165.56060493 6.73901367 174.01367188 C5.11490296 174.93482971 3.55356677 175.96428882 2 177 C-1.83007023 176.65635649 -4.67398795 175.28517715 -7.9921875 173.41015625 C-8.93747314 172.8780957 -9.88275879 172.34603516 -10.85668945 171.79785156 C-12.35075317 170.93885254 -12.35075317 170.93885254 -13.875 170.0625 C-14.90133545 169.4756543 -15.9276709 168.88880859 -16.98510742 168.28417969 C-35.3217934 157.7041607 -54.37665513 146.23781305 -63 126 C-63.44666016 124.95585937 -63.44666016 124.95585937 -63.90234375 123.890625 C-68.40378686 111.97635765 -68.29213982 98.65086197 -68.1953125 86.09765625 C-68.19156845 84.63936053 -68.18872809 83.18106223 -68.18673706 81.72276306 C-68.17920991 77.94008059 -68.15965969 74.15755912 -68.1373291 70.37493896 C-68.11663102 66.49281999 -68.10768487 62.61067423 -68.09765625 58.72851562 C-68.07639986 51.15227146 -68.04240145 43.57615854 -68 36 C-67.40737869 35.83526184 -66.81475739 35.67052368 -66.20417786 35.50079346 C-63.47470626 34.73932784 -60.74713025 33.97127012 -58.01953125 33.203125 C-56.62160339 32.81471436 -56.62160339 32.81471436 -55.19543457 32.41845703 C-34.16783134 26.47497347 -15.47707198 15.47707198 0 0 Z " fill="#FDEA90" transform="translate(341,238)"/>
<path d="M0 0 C0.71829638 -0.00367669 1.43659277 -0.00735338 2.17665571 -0.01114148 C4.59006263 -0.02217805 7.00342648 -0.02602216 9.41685486 -0.02983093 C11.14489377 -0.03609576 12.87293133 -0.04274258 14.60096741 -0.04974365 C20.28299521 -0.07078957 25.96502329 -0.08114863 31.64707947 -0.09111023 C33.60418143 -0.09515802 35.56128326 -0.09927494 37.51838493 -0.10346031 C46.71597378 -0.12251556 55.91355459 -0.13674417 65.11115938 -0.14507228 C75.71996868 -0.15483711 86.3285689 -0.18113556 96.93730456 -0.22157317 C105.14127688 -0.25176834 113.34518941 -0.26654451 121.54921621 -0.26985329 C126.44678517 -0.2722005 131.34413087 -0.28111767 136.24164009 -0.30631447 C140.85375887 -0.32965877 145.46550842 -0.33380293 150.07767105 -0.32355309 C151.76505832 -0.32305911 153.45246415 -0.32933864 155.1397953 -0.34310913 C174.60678375 -0.49301455 174.60678375 -0.49301455 181.58302402 5.52375317 C186.73655908 11.2805398 188.43574174 16.9397376 188.39097595 24.50410461 C188.3978392 25.32118393 188.40470245 26.13826324 188.41177368 26.98010254 C188.43000577 29.66878364 188.4262089 32.35687913 188.42051697 35.04560852 C188.42508096 36.92359099 188.43038718 38.80157179 188.43640137 40.67955017 C188.44532578 44.61186007 188.44291751 48.54396682 188.43296814 52.47627258 C188.42148773 57.50215424 188.44167913 62.52733232 188.47088528 67.55312157 C188.48928098 71.43089718 188.48894796 75.30850531 188.48324776 79.18631363 C188.48309491 81.03857535 188.48910887 82.89084868 188.50153923 84.7430687 C188.51650894 87.33963661 188.50572857 89.93491915 188.4886322 92.53144836 C188.50313416 93.66638481 188.50313416 93.66638481 188.51792908 94.82424927 C188.43073367 101.18629952 186.41424987 106.33429583 182.24082947 111.17060852 C181.68266541 111.61662415 181.12450134 112.06263977 180.54942322 112.52217102 C179.99383728 112.9836554 179.43825134 113.44513977 178.86582947 113.92060852 C174.16990431 116.9861397 170.1266359 117.40173846 164.56802368 117.42132568 C163.83027311 117.42656236 163.09252253 117.43179904 162.33241588 117.43719441 C159.86522709 117.45217237 157.39824611 117.45289907 154.93101501 117.4535675 C153.16002554 117.46119047 151.38903938 117.46961821 149.61805725 117.47879028 C144.81011188 117.50072854 140.0022301 117.50953328 135.19424033 117.51461673 C132.18918654 117.51826108 129.18414939 117.52450155 126.17910194 117.53161812 C115.69193923 117.55611023 105.20482596 117.56916401 94.71763611 117.57270813 C84.94788188 117.57634326 75.17844182 117.60623765 65.40878361 117.64811271 C57.0162596 117.68282177 48.62383968 117.69825668 40.23124439 117.69895416 C35.22083127 117.69974676 30.21073824 117.70847767 25.2003994 117.73695183 C20.48641073 117.76314298 15.7730073 117.76533184 11.05897903 117.74929619 C9.33204814 117.74748254 7.60508351 117.75416491 5.87822533 117.7701149 C-11.01648674 117.91660791 -11.01648674 117.91660791 -17.01307678 112.14717102 C-22.40857824 106.4676958 -23.31305791 101.27577256 -23.31947327 93.62837219 C-23.32779678 92.78217819 -23.3361203 91.93598419 -23.34469604 91.06414795 C-23.36874825 88.27276477 -23.37756249 85.48161552 -23.38417053 82.69013977 C-23.39314079 80.74346854 -23.40226271 78.79679801 -23.41152954 76.85012817 C-23.42800931 72.77065864 -23.43571776 68.69127107 -23.43861389 64.61177063 C-23.44399533 59.39634468 -23.48167003 54.18169409 -23.52735806 48.96648693 C-23.55716962 44.94546732 -23.56433835 40.92463346 -23.56534004 36.90351295 C-23.56953451 34.98144799 -23.58193763 33.05938207 -23.60285759 31.13742638 C-23.62985612 28.44242988 -23.62492175 25.74921823 -23.61244202 23.05415344 C-23.62727631 22.26790588 -23.6421106 21.48165833 -23.65739441 20.67158508 C-23.57945211 14.73056462 -21.69117884 10.78883047 -18.01307678 6.14717102 C-15.88026428 4.30732727 -15.88026428 4.30732727 -13.88807678 3.20967102 C-13.22549866 2.82939758 -12.56292053 2.44912415 -11.88026428 2.05732727 C-7.80528346 0.07098725 -4.48667633 0.01486906 0 0 Z M-9.01307678 17.14717102 C-9.4104863 19.91566844 -9.54999296 22.28940949 -9.51478577 25.0592804 C-9.52018875 25.86444595 -9.52559174 26.66961151 -9.53115845 27.49917603 C-9.54367659 30.16346375 -9.52713483 32.82667734 -9.50917053 35.49092102 C-9.50932545 37.34032752 -9.51081321 39.18973436 -9.51358032 41.03913879 C-9.5149657 44.91627849 -9.50238325 48.79304888 -9.47962952 52.67012024 C-9.45124443 57.64381791 -9.45398034 62.61690175 -9.46671963 67.59064484 C-9.47366943 71.40989947 -9.46589554 75.22901182 -9.4534626 79.04824829 C-9.44894129 80.88229833 -9.44861722 82.7163636 -9.452528 84.55041504 C-9.45543339 87.11228321 -9.43896603 89.67330085 -9.41712952 92.23506165 C-9.42163116 92.99567398 -9.42613281 93.75628632 -9.43077087 94.53994751 C-9.41148754 98.38333458 -9.41148754 98.38333458 -7.92731476 101.84116459 C-5.00082507 103.83778904 -2.51191811 103.52823095 1.00241089 103.53485107 C1.72085712 103.54023661 2.43930334 103.54562215 3.17952067 103.55117089 C5.59327763 103.56550864 8.00649066 103.55833268 10.42027283 103.55122375 C12.14819786 103.55692431 13.87611913 103.56388734 15.60403442 103.57202148 C20.30237667 103.59000311 25.00053267 103.58877511 29.69889903 103.5830791 C33.61804894 103.57999438 37.5371627 103.58607171 41.45630747 103.59211785 C50.70051125 103.60617797 59.94462264 103.6045895 69.18882751 103.59321594 C78.73251005 103.58173355 88.27591162 103.59580905 97.81955713 103.62261242 C106.00731831 103.64474866 114.19499115 103.65141148 122.38278013 103.64553601 C127.27566061 103.6421602 132.16836097 103.6446227 137.06121635 103.66178703 C141.66186169 103.67722103 146.26208994 103.67334025 150.86271858 103.65448189 C152.55261275 103.65078611 154.24253757 103.65393317 155.93240356 103.66436768 C158.23690461 103.67751252 160.54001154 103.66608977 162.8444519 103.64837646 C164.1347528 103.64816718 165.42505369 103.6479579 166.75445461 103.64774227 C170.04836405 103.3975875 170.04836405 103.3975875 172.40116119 101.33362579 C174.69101643 98.17636459 174.55413746 95.1843029 174.52037048 91.42866516 C174.52898605 90.65582687 174.53760162 89.88298859 174.54647827 89.08673096 C174.56915976 86.53492124 174.5623955 83.98420786 174.55332947 81.43232727 C174.5585644 79.65639927 174.5648404 77.88047405 174.57211304 76.10455322 C174.58252146 72.38303034 174.57795 68.66188972 174.56333923 64.94038391 C174.54615717 60.1740402 174.56963657 55.40890261 174.60482883 50.64269352 C174.62680363 46.97516916 174.6253611 43.30793332 174.61706352 39.64036369 C174.61624391 37.88330704 174.62310918 36.12622922 174.63783455 34.36923409 C174.65528132 31.91042906 174.64073922 29.4537898 174.61802673 26.99507141 C174.62971893 26.27127289 174.64141113 25.54747437 174.65345764 24.80174255 C174.58520945 21.16536036 174.14831951 19.35460951 171.89641571 16.46029568 C168.25837504 13.56795566 166.41556601 13.5231322 161.80685425 13.52571106 C161.09486628 13.51932224 160.3828783 13.51293342 159.64931494 13.50635099 C157.26900625 13.49111794 154.89036669 13.51154869 152.51011658 13.53193665 C150.80159962 13.52843494 149.09308592 13.5227758 147.38458252 13.51512146 C142.74817771 13.50087191 138.11236584 13.51793588 133.47601771 13.54140663 C128.62520868 13.56150821 123.77442443 13.55563649 118.92358398 13.55329895 C110.77850051 13.55335252 102.63364901 13.57311208 94.4886322 13.60517883 C85.06876575 13.6420841 75.64920305 13.65085272 66.22927374 13.64388132 C57.16994364 13.63757896 48.11071782 13.64832486 39.05140877 13.66784668 C35.19462665 13.67602627 31.33789778 13.6787292 27.48110771 13.67715454 C22.94119603 13.67627642 18.40157359 13.69047227 13.8617382 13.71638107 C12.19443158 13.72355065 10.5270942 13.72562269 8.85977554 13.72226334 C6.5862048 13.71855586 4.31348161 13.73326942 2.04000854 13.75276184 C0.76705398 13.75649055 -0.50590059 13.76021927 -1.81742954 13.76406097 C-5.23325458 14.17356703 -6.6716889 14.65406031 -9.01307678 17.14717102 Z " fill="#030404" transform="translate(100.01307678222656,62.85282897949219)"/>
<path d="M0 0 C3.28727836 0.56252892 4.48201297 1.2756084 6.859375 3.5625 C7.88998047 4.52929688 7.88998047 4.52929688 8.94140625 5.515625 C10.1421636 6.71875071 11.33083834 7.93433327 12.49609375 9.171875 C27.85177136 25.41717625 50.49096805 35.85523121 72.18725586 39.98144531 C75.1956418 40.60082926 77.71892048 41.38055787 80.37109375 42.94140625 C82.93502231 47.17156546 82.6089277 51.51677808 82.671875 56.375 C82.69934814 57.52033203 82.72682129 58.66566406 82.75512695 59.84570312 C82.82411326 63.25691184 82.86902569 66.66680619 82.89971924 70.07849121 C82.92378686 72.70895636 82.95389058 75.33932264 82.98388672 77.96972656 C83.03733197 82.97019494 83.07212677 87.97055402 83.09509277 92.97125244 C83.10448154 94.96227373 83.11637065 96.95328509 83.13098145 98.9442749 C83.19477892 108.9644924 83.07148559 118.8955427 82.05078125 128.87109375 C81.9751445 129.61891113 81.89950775 130.36672852 81.82157898 131.13720703 C79.54048085 150.93215818 70.19142535 166.32104652 54.734375 178.8125 C46.33864331 185.35595829 37.11439801 190.59880487 27.86669922 195.82861328 C24.85234218 197.53946457 21.85817707 199.28269273 18.86328125 201.02734375 C16.90476456 202.1451915 14.94516314 203.26114135 12.984375 204.375 C12.07945312 204.90536865 11.17453125 205.4357373 10.2421875 205.98217773 C6.55019963 208.03948939 3.80937221 209.44330738 -0.44140625 209.71484375 C-6.08034205 207.83116058 -11.13634074 205.06099026 -16.328125 202.1875 C-17.47676025 201.55884033 -18.62539551 200.93018066 -19.80883789 200.2824707 C-33.96784748 192.48531748 -48.05021106 184.39708443 -60.078125 173.5 C-60.80128906 172.85804688 -61.52445312 172.21609375 -62.26953125 171.5546875 C-74.33607722 160.2437317 -79.61934057 145.82705434 -81.203125 129.69140625 C-81.28657669 128.8420047 -81.37002838 127.99260315 -81.45600891 127.11746216 C-82.41021908 116.25594377 -82.3410032 105.37617959 -82.28393555 94.48144531 C-82.26561472 90.87297487 -82.26342726 87.26476233 -82.26367188 83.65625 C-82.24976875 73.44891087 -82.18473808 63.23847891 -81.75390625 53.0390625 C-81.73216843 52.31915131 -81.7104306 51.59924011 -81.68803406 50.85751343 C-81.47835552 46.87175861 -81.02764609 44.29505098 -78.078125 41.5 C-75.38907396 40.74956715 -72.87857782 40.20909815 -70.140625 39.75 C-48.15266172 35.42226015 -26.72703397 24.82142931 -11.16796875 8.48828125 C-10.68231445 7.98151855 -10.19666016 7.47475586 -9.69628906 6.95263672 C-8.33977665 5.51602988 -7.01079125 4.05357594 -5.68359375 2.58984375 C-3.078125 0.5 -3.078125 0.5 0 0 Z M-0.078125 17.5 C-0.69816406 18.10585937 -1.31820312 18.71171875 -1.95703125 19.3359375 C-20.75965933 37.12590585 -43.14286216 47.34431044 -68.078125 53.5 C-68.12483645 61.84625626 -68.16018854 70.19245626 -68.18174934 78.53881168 C-68.19210681 82.41597737 -68.20611548 86.29305245 -68.22900391 90.17016602 C-68.25102362 93.9243958 -68.26275372 97.67853944 -68.26787949 101.4328289 C-68.27152379 102.85227244 -68.27863673 104.27171225 -68.28958511 105.69111824 C-68.43120815 124.84530397 -66.86107754 144.88949959 -53.078125 159.5 C-52.44519531 160.221875 -51.81226563 160.94375 -51.16015625 161.6875 C-40.0231466 173.72299261 -24.53561298 181.33642334 -10.3671875 189.20214844 C-8.90725406 190.0299008 -7.46222994 190.88493441 -6.0390625 191.77441406 C-2.81843331 193.94375794 -2.81843331 193.94375794 0.89550781 194.20629883 C4.32386049 193.01133204 7.47800571 191.2697356 10.671875 189.5625 C11.41977295 189.16353516 12.1676709 188.76457031 12.93823242 188.35351562 C35.77671785 176.00916667 57.96333578 162.60554653 65.921875 136.5 C68.76060841 126.45394343 69.07750089 116.08797483 69.0546875 105.70703125 C69.05564423 104.71732834 69.05660095 103.72762543 69.05758667 102.70793152 C69.05826222 100.62812231 69.05645197 98.54831092 69.05224609 96.46850586 C69.04691785 93.33767791 69.05219779 90.20699528 69.05859375 87.07617188 C69.0619329 75.84227741 68.82351642 64.70068673 67.921875 53.5 C67.38522217 53.36537354 66.84856934 53.23074707 66.2956543 53.09204102 C43.10536679 47.16090155 24.63933555 37.8659293 6.26171875 22.4453125 C4.19296928 20.72538389 2.08971665 19.09208694 -0.078125 17.5 Z " fill="#040301" transform="translate(341.078125,220.5)"/>
<path d="M0 0 C0.63615234 0.56267578 0.63615234 0.56267578 1.28515625 1.13671875 C5.36517338 4.69664579 9.5513476 7.91317997 14 11 C0.76053897 21.72898438 -12.81265961 31.23479688 -28 39 C-29.01042358 39.55349121 -29.01042358 39.55349121 -30.04125977 40.11816406 C-32 41 -32 41 -35 41 C-34.99777939 41.54599854 -34.99555878 42.09199707 -34.99327087 42.65454102 C-34.97105391 48.36522768 -34.95602523 54.07590196 -34.94506836 59.78662109 C-34.94005651 61.91455586 -34.93324528 64.04248721 -34.92456055 66.17041016 C-34.91235664 69.23861537 -34.90674007 72.30677484 -34.90234375 75.375 C-34.89718246 76.31802979 -34.89202118 77.26105957 -34.88670349 78.23266602 C-34.88625453 83.58428404 -35.21601106 88.70468368 -36 94 C-35.02289063 93.86980469 -34.04578125 93.73960937 -33.0390625 93.60546875 C-27.66482403 93.6095258 -24.32952377 97.02521478 -20.375 100.3125 C-18.90536526 101.49822803 -17.43405518 102.68188311 -15.9609375 103.86328125 C-15.27870117 104.4145166 -14.59646484 104.96575195 -13.89355469 105.53369141 C-11.70289279 107.23007038 -9.42973618 108.66988751 -7 110 C-6.72704102 109.28046143 -6.45408203 108.56092285 -6.17285156 107.81958008 C-5.01939229 105.0466198 -3.70261313 102.5052063 -2.234375 99.88671875 C-1.68072266 98.89736328 -1.12707031 97.90800781 -0.55664062 96.88867188 C0.03955078 95.83228516 0.63574219 94.77589844 1.25 93.6875 C1.86681641 92.59115234 2.48363281 91.49480469 3.11914062 90.36523438 C7.53031096 82.54847965 11.99185205 74.76125579 16.5 67 C17.06235352 66.02893311 17.62470703 65.05786621 18.20410156 64.05737305 C19.78086109 61.35767713 21.38109748 58.67460973 23 56 C23.52505127 55.12384033 24.05010254 54.24768066 24.59106445 53.3449707 C25.1037085 52.52601318 25.61635254 51.70705566 26.14453125 50.86328125 C26.59417236 50.13665283 27.04381348 49.41002441 27.50708008 48.66137695 C29 47 29 47 31.03393555 46.30151367 C34.26922161 46.13023166 36.47647779 46.60339227 39.0625 48.5625 C40.3800629 51.98816354 40.03365538 54.5662844 39 58 C37.02799197 62.07835743 34.70598088 65.93081317 32.375 69.8125 C31.35373372 71.54603153 30.33248565 73.27957412 29.31236267 75.01377869 C28.25244192 76.81261913 27.1877423 78.60856889 26.12255859 80.40429688 C22.75603874 86.09199113 19.4791233 91.83124278 16.1875 97.5625 C14.35841717 100.73142337 12.52712719 103.89906146 10.6953125 107.06640625 C9.59727084 108.96647372 8.50081388 110.86745823 7.40625 112.76953125 C6.0050067 115.20346167 4.59733199 117.63353765 3.1875 120.0625 C2.5836145 121.11642944 2.5836145 121.11642944 1.9675293 122.19165039 C-0.77114228 126.88557114 -0.77114228 126.88557114 -3 128 C-6.87778378 128.47438038 -8.61034084 128.24065678 -11.97265625 126.1640625 C-12.99230469 125.32617188 -14.01195312 124.48828125 -15.0625 123.625 C-16.19501652 122.71187237 -17.32783861 121.79912361 -18.4609375 120.88671875 C-19.3286377 120.17588135 -19.3286377 120.17588135 -20.21386719 119.45068359 C-23.16158969 117.05656562 -26.17539588 114.74967676 -29.1875 112.4375 C-29.73994385 112.00840332 -30.2923877 111.57930664 -30.86157227 111.13720703 C-33.79726865 108.86256261 -33.79726865 108.86256261 -37 107 C-36.63596172 125.32661211 -35.92912418 142.50698113 -30 160 C-44.14892163 151.63438284 -56.45776886 141.35372326 -63 126 C-63.44666016 124.95585937 -63.44666016 124.95585937 -63.90234375 123.890625 C-68.40378686 111.97635765 -68.29213982 98.65086197 -68.1953125 86.09765625 C-68.19156845 84.63936053 -68.18872809 83.18106223 -68.18673706 81.72276306 C-68.17920991 77.94008059 -68.15965969 74.15755912 -68.1373291 70.37493896 C-68.11663102 66.49281999 -68.10768487 62.61067423 -68.09765625 58.72851562 C-68.07639986 51.15227146 -68.04240145 43.57615854 -68 36 C-67.40737869 35.83526184 -66.81475739 35.67052368 -66.20417786 35.50079346 C-63.47470626 34.73932784 -60.74713025 33.97127012 -58.01953125 33.203125 C-56.62160339 32.81471436 -56.62160339 32.81471436 -55.19543457 32.41845703 C-34.16783134 26.47497347 -15.47707198 15.47707198 0 0 Z " fill="#E3BF74" transform="translate(341,238)"/>
<path d="M0 0 C6.42903575 5.45070423 6.42903575 5.45070423 9.05859375 7.98046875 C31.17397758 29.02266238 60.41085337 41.90031676 90 48 C90.77125055 66.65154593 91.1260265 85.29856206 91.17724609 103.96591187 C91.18399405 106.16825694 91.19415537 108.37059465 91.20800781 110.57290649 C91.27081796 121.4178837 91.17986528 132.18296951 90.125 142.984375 C90.04883957 143.76843216 89.97267914 144.55248932 89.89421082 145.36030579 C87.75747442 164.6995787 79.77241651 180.40415294 66 194 C65.28070313 194.71800781 64.56140625 195.43601562 63.8203125 196.17578125 C51.39237663 207.87680011 35.55073242 215.93855603 20.85400391 224.35644531 C18.23889755 225.86242444 15.63880978 227.39081969 13.04296875 228.9296875 C11.61221734 229.76603258 10.18124577 230.6020012 8.75 231.4375 C8.11328369 231.82107666 7.47656738 232.20465332 6.82055664 232.59985352 C2.53533122 235.06717601 2.53533122 235.06717601 0.17504883 234.77099609 C-5.16670092 232.87749001 -10.08324683 229.87076331 -15.0625 227.1875 C-15.68948792 226.85053101 -16.31647583 226.51356201 -16.96246338 226.16638184 C-45.2503536 210.92631821 -75.39822039 193.65405031 -86.0390625 161.41015625 C-90.3713173 146.03593495 -90.14405103 130.06673323 -90.09765625 114.234375 C-90.09578743 112.34580523 -90.09436572 110.45723498 -90.09336853 108.56866455 C-90.08957988 103.63684716 -90.07978147 98.70505998 -90.06866455 93.77325439 C-90.05837123 88.7251425 -90.05385406 83.67702565 -90.04882812 78.62890625 C-90.03815535 68.75259101 -90.02112367 58.87629803 -90 49 C-80.62919864 45.83697754 -80.62919864 45.83697754 -76.37890625 44.67578125 C-46.92324246 36.39270517 -21.66419226 21.66419226 0 0 Z M-9.5 18.375 C-26.91095732 36.69330846 -50.3198804 48.17418039 -75.2421875 52.1640625 C-78.64324941 53.19497928 -79.26344236 53.93355675 -81 57 C-81.38794235 59.58490734 -81.59738931 61.94288576 -81.67578125 64.5390625 C-81.70859695 65.31593414 -81.74141266 66.09280579 -81.77522278 66.89321899 C-82.17138785 77.50854764 -82.18602273 88.13650183 -82.18530273 98.7578125 C-82.18749216 102.36209891 -82.20573006 105.96607973 -82.22460938 109.5703125 C-82.25095388 120.14779139 -82.15993668 130.65744565 -81.125 141.19140625 C-81.04883957 141.96733124 -80.97267914 142.74325623 -80.89421082 143.54269409 C-78.75373772 162.55147657 -70.1380558 177.41277917 -55.21191406 189.44091797 C-44.10994257 198.01815098 -31.95575669 204.83410129 -19.66308594 211.53417969 C-17.23746605 212.86929353 -14.83848342 214.24063649 -12.4453125 215.6328125 C-11.1304657 216.380661 -9.815382 217.12809326 -8.5 217.875 C-7.3965625 218.51179687 -6.293125 219.14859375 -5.15625 219.8046875 C-0.35060485 221.62464717 2.80766535 220.98233624 7.46386719 218.89599609 C10.39311529 217.41566281 13.26020396 215.85149019 16.125 214.25 C17.70148315 213.37915771 17.70148315 213.37915771 19.30981445 212.49072266 C34.76402983 203.87575537 50.12585914 195.26918857 63 183 C63.76441406 182.27683594 64.52882813 181.55367187 65.31640625 180.80859375 C84.1101951 161.44421549 83.37202941 132.64552011 83.1875 107.5 C83.17793458 105.47151751 83.16849562 103.44303443 83.15917969 101.41455078 C83.13151876 96.49608224 83.08605381 91.57801149 83.02996826 86.65979004 C83.00239979 84.21299011 82.97953289 81.76619072 82.95751953 79.31933594 C82.91913682 75.50369738 82.84150506 71.6897681 82.75 67.875 C82.73606201 66.79927734 82.72212402 65.72355469 82.70776367 64.61523438 C82.54363196 59.29090216 82.54363196 59.29090216 80.52734375 54.46484375 C76.80092951 52.30502097 73.00235174 51.56158772 68.8125 50.6875 C44.28552953 45.02007271 24.46553604 33.08106776 6.99609375 14.96875 C4.63412813 12.63914008 3.54727919 12.09278584 0.28125 11.5390625 C-4.52130312 12.21370687 -6.35846743 14.87053372 -9.5 18.375 Z " fill="#DF970F" transform="translate(341,209)"/>
<path d="M0 0 C8.39006543 6.78345716 13.70964474 14.07418683 15.3125 24.91015625 C15.6097031 30.77062987 14.10485784 35.53339614 11.91015625 40.9296875 C10.62474633 44.07656564 10.62474633 44.07656564 9.9375 47.375 C11.59997014 49.37848966 13.26682867 51.37834402 14.9375 53.375 C15.5 56 15.5 56 14.9375 58.375 C13.375 60.6875 13.375 60.6875 10.9375 62.375 C7.5625 63 7.5625 63 3.9375 62.375 C1.55545092 60.57152302 -0.10143945 58.67087576 -2.0625 56.375 C-3.04605469 56.69597656 -4.02960938 57.01695312 -5.04296875 57.34765625 C-13.31947983 59.69603047 -23.81722321 59.98771374 -31.6875 56.3125 C-40.25854723 51.10293309 -45.71962499 43.99675793 -48.6796875 34.3671875 C-50.48916842 24.95050109 -48.30269017 16.76912145 -43.4375 8.6875 C-33.14255542 -5.87794011 -14.98885583 -7.95327044 0 0 Z " fill="#010403" transform="translate(161.0625,92.625)"/>
<path d="M0 0 C1.07245972 -0.00478363 2.14491943 -0.00956726 3.24987793 -0.01449585 C5.51604683 -0.01789646 7.78226468 -0.0086829 10.04833984 0.01220703 C13.51901533 0.03896816 16.98645648 0.01246242 20.45703125 -0.01953125 C22.65886131 -0.01622718 24.86068936 -0.00982102 27.0625 0 C28.10112183 -0.01012115 29.13974365 -0.02024231 30.20983887 -0.03067017 C37.24179792 0.08384613 37.24179792 0.08384613 40.68139648 2.61181641 C42.56100013 6.86191675 42.62368749 10.56015361 42.59765625 15.1640625 C42.60695412 16.53401367 42.60695412 16.53401367 42.61643982 17.93164062 C42.6235277 19.8580621 42.62038201 21.78454496 42.60766602 23.7109375 C42.59379368 26.6547938 42.62789261 29.59547418 42.66601562 32.5390625 C42.66696682 34.41406328 42.66510797 36.28906802 42.66015625 38.1640625 C42.67341446 39.04126953 42.68667267 39.91847656 42.70033264 40.82226562 C42.63812235 44.91409841 42.33577424 47.16469707 40.16992188 50.71630859 C35.55695372 53.57896104 31.51657144 53.38148265 26.18359375 53.328125 C25.13474503 53.33290863 24.0858963 53.33769226 23.00526428 53.34262085 C20.79214983 53.34601771 18.57898505 53.3368304 16.3659668 53.31591797 C12.97656655 53.28912429 9.59047 53.3156887 6.20117188 53.34765625 C4.04947185 53.34435264 1.89777389 53.33794743 -0.25390625 53.328125 C-1.77432274 53.34330673 -1.77432274 53.34330673 -3.32545471 53.35879517 C-10.18325226 53.24436632 -10.18325226 53.24436632 -13.60522461 50.71630859 C-15.50546679 46.46262412 -15.54258248 42.7773764 -15.5 38.1640625 C-15.5038269 37.25076172 -15.50765381 36.33746094 -15.51159668 35.39648438 C-15.51431253 33.47004084 -15.50697424 31.54356022 -15.49023438 29.6171875 C-15.46881968 26.67364042 -15.49004671 23.73253395 -15.515625 20.7890625 C-15.51298167 18.91405713 -15.50785657 17.03905327 -15.5 15.1640625 C-15.50809692 14.28685547 -15.51619385 13.40964844 -15.52453613 12.50585938 C-15.46683899 8.7336094 -15.15764372 6.0918794 -13.62109375 2.61181641 C-9.37773826 -0.50430013 -5.13266543 -0.05001676 0 0 Z " fill="#040707" transform="translate(167.96875,328.3359375)"/>
<path d="M0 0 C0.96787949 -0.01268417 1.93575897 -0.02536835 2.93296814 -0.03843689 C3.97675125 -0.03550125 5.02053436 -0.03256561 6.09594727 -0.02954102 C7.70675926 -0.03740379 7.70675926 -0.03740379 9.35011292 -0.04542542 C11.62223445 -0.05185173 13.89438922 -0.05050078 16.16650391 -0.04199219 C19.64554051 -0.03348836 23.1229326 -0.06222697 26.60180664 -0.09399414 C28.80818636 -0.09560634 31.01456898 -0.09502827 33.22094727 -0.09204102 C34.26270615 -0.10327499 35.30446503 -0.11450897 36.37779236 -0.12608337 C43.36588374 -0.05857276 43.36588374 -0.05857276 46.87939453 1.83374023 C48.96884954 5.82535379 48.79588437 9.58253033 48.75610352 14.02514648 C48.75993042 14.96205826 48.76375732 15.89897003 48.7677002 16.86427307 C48.77041953 18.84377111 48.76305686 20.82330507 48.74633789 22.80273438 C48.72495244 25.82756022 48.74612632 28.85000443 48.77172852 31.87475586 C48.76908477 33.7998913 48.76395883 35.72502526 48.75610352 37.65014648 C48.76420044 38.55236435 48.77229736 39.45458221 48.78063965 40.38414001 C48.72348788 44.22611314 48.43359612 46.9332588 46.86352539 50.47436523 C42.67027454 53.5409321 38.54023637 53.09901065 33.47485352 53.03295898 C31.89945801 53.03657692 31.89945801 53.03657692 30.29223633 53.04026794 C28.07312237 53.03928904 25.85398414 53.02588539 23.63500977 53.00097656 C20.23703103 52.96667566 16.84165324 52.98031453 13.44360352 52.99975586 C11.28734244 52.99285735 9.13108808 52.98318492 6.97485352 52.97045898 C5.95810547 52.97541885 4.94135742 52.98037872 3.89379883 52.98548889 C-0.03111047 52.91990831 -2.92008374 52.85810473 -6.41601562 51.00170898 C-8.57910038 46.86748557 -8.32535648 42.87201917 -8.27124023 38.27514648 C-8.27269547 37.28909927 -8.2741507 36.30305206 -8.27565002 35.28712463 C-8.27399161 33.2050582 -8.26243687 31.12297944 -8.24169922 29.04101562 C-8.21272002 25.8496513 -8.22109655 22.65994541 -8.23413086 19.46850586 C-8.22789419 17.44571131 -8.2195038 15.42292201 -8.20874023 13.40014648 C-8.21167587 12.44385849 -8.21461151 11.4875705 -8.21763611 10.50230408 C-8.20495193 9.6145076 -8.19226776 8.72671112 -8.17919922 7.81201172 C-8.17379623 7.03131821 -8.16839325 6.25062469 -8.16282654 5.4462738 C-7.26971505 0.74154092 -4.37341905 0.02774221 0 0 Z " fill="#010202" transform="translate(86.775146484375,328.595947265625)"/>
<path d="M0 0 C1.07093372 -0.00384491 1.07093372 -0.00384491 2.16350245 -0.0077675 C4.55590698 -0.01270906 6.94768047 0.00379312 9.34002686 0.02018738 C11.05488063 0.02103357 12.76973548 0.02055866 14.48458862 0.01885986 C19.14132305 0.01799819 23.79782624 0.03565188 28.45450687 0.05658174 C33.32053013 0.07531977 38.18655853 0.07709671 43.0526123 0.08065796 C52.26776498 0.08998687 61.48281104 0.11461213 70.69791675 0.14470643 C81.18872596 0.17822409 91.67954023 0.19472982 102.17038965 0.20979273 C123.75140898 0.24116093 145.3323323 0.2939379 166.91326904 0.36076355 C166.91326904 0.69076355 166.91326904 1.02076355 166.91326904 1.36076355 C114.44326904 1.36076355 61.97326904 1.36076355 7.91326904 1.36076355 C10.14607377 18.88117266 10.14607377 18.88117266 13.91326904 29.36076355 C13.24700602 31.61336709 12.57214542 33.87007151 11.70233154 36.0521698 C9.31556225 43.03524235 10.83312111 50.01709365 13.53045654 56.6849823 C17.25170905 63.88571103 22.65875174 69.14210803 30.03826904 72.4974823 C35.54229484 74.1501857 41.19844015 74.27018269 46.91326904 74.36076355 C46.91326904 74.69076355 46.91326904 75.02076355 46.91326904 75.36076355 C44.43826904 75.85576355 44.43826904 75.85576355 41.91326904 76.36076355 C42.51655029 76.9640448 43.11983154 77.56732605 43.74139404 78.18888855 C47.46535238 81.91284688 51.18931071 85.63680522 54.91326904 89.36076355 C46.75093428 89.43024431 38.58872287 89.48356473 30.42616558 89.51620007 C26.63603464 89.53186265 22.84610588 89.55311133 19.05609131 89.58708191 C15.39916303 89.61965485 11.74242934 89.6376121 8.0853672 89.64539528 C6.68948109 89.65094256 5.29360573 89.66177505 3.89780235 89.67795372 C1.94432314 89.69969784 -0.00935147 89.7009887 -1.96295166 89.70133972 C-3.07547806 89.70800156 -4.18800446 89.71466339 -5.33424377 89.7215271 C-8.08673096 89.36076355 -8.08673096 89.36076355 -9.94421387 88.33398438 C-11.75757181 85.20216631 -11.51161831 81.9689349 -11.49078369 78.44865417 C-11.49764694 77.64348862 -11.50451019 76.83832306 -11.51158142 76.00875854 C-11.52989777 73.34466468 -11.52600551 70.68115692 -11.52032471 68.01701355 C-11.52488388 66.16760567 -11.53018866 64.31819948 -11.53620911 62.46879578 C-11.54514946 58.59173197 -11.54270622 54.71487404 -11.53277588 50.83781433 C-11.52127923 45.86403867 -11.5415035 40.8909722 -11.57069302 35.91728973 C-11.58901856 32.09804251 -11.58876997 28.27896642 -11.5830555 24.45968628 C-11.58290186 22.62562057 -11.58898063 20.79154356 -11.60134697 18.95751953 C-11.61618843 16.39551478 -11.60563174 13.83483555 -11.58843994 11.27287292 C-11.59810791 10.51226059 -11.60777588 9.75164825 -11.61773682 8.96798706 C-11.54565585 3.85068144 -11.54565585 3.85068144 -9.4983263 1.6650877 C-6.2109348 -0.11291545 -3.7331169 -0.0080687 0 0 Z " fill="#51D5AB" transform="translate(102.08673095703125,76.63923645019531)"/>
<path d="M0 0 C3.12905997 0.33977471 5.5944629 1.74156019 8.31640625 3.2578125 C25.33842591 12.56355467 41.99762792 19.08273764 61 23 C61.77125055 41.65154593 62.1260265 60.29856206 62.17724609 78.96591187 C62.18399405 81.16825694 62.19415537 83.37059465 62.20800781 85.57290649 C62.27081796 96.4178837 62.17986528 107.18296951 61.125 117.984375 C61.04883957 118.76843216 60.97267914 119.55248932 60.89421082 120.36030579 C58.75747442 139.6995787 50.77241651 155.40415294 37 169 C36.28070313 169.71800781 35.56140625 170.43601562 34.8203125 171.17578125 C28.22900278 177.38156153 20.63979461 182.20686963 13 187 C11.80068848 187.75941895 11.80068848 187.75941895 10.57714844 188.53417969 C8.06582895 190.11019551 5.53695149 191.65314503 3 193.1875 C2.21125488 193.68161377 1.42250977 194.17572754 0.60986328 194.68481445 C-3.23124937 196.95560188 -5.29103591 198.01871377 -9.84765625 197.8984375 C-13.16395341 196.95327226 -15.99591983 195.68521571 -19 194 C-17.97256253 190.68115521 -16.86330769 189.91811912 -13.82421875 188.09765625 C-12.44943961 187.41094558 -11.07016324 186.73319485 -9.6875 186.0625 C5.98858721 178.08200817 21.20658563 169.17686428 34 157 C34.6909375 156.3503125 35.381875 155.700625 36.09375 155.03125 C54.35567139 136.12855944 53.36430519 106.90088612 53.1875 82.5 C53.17860932 80.47225014 53.1699033 78.44449947 53.16137695 76.41674805 C53.13054884 70.61084485 53.07238441 64.80552271 53 59 C52.99033203 58.19854553 52.98066406 57.39709106 52.97070312 56.5713501 C52.91144721 51.98383122 52.8150739 47.39873347 52.6875 42.8125 C52.66518311 41.72839844 52.64286621 40.64429688 52.61987305 39.52734375 C52.58418213 38.55539062 52.54849121 37.5834375 52.51171875 36.58203125 C52.48553467 35.75936768 52.45935059 34.9367041 52.43237305 34.08911133 C51.88920276 31.46465727 51.13532765 30.59294535 49 29 C47.07749749 28.25553006 47.07749749 28.25553006 44.9296875 27.859375 C44.12426514 27.67987305 43.31884277 27.50037109 42.48901367 27.31542969 C41.62638916 27.12883789 40.76376465 26.94224609 39.875 26.75 C25.97432712 23.48397526 3.39274749 17.58912123 -5 5 C-2.75 2.4375 -2.75 2.4375 0 0 Z " fill="#F9B302" transform="translate(370,234)"/>
<path d="M0 0 C7.74916038 2.71900364 10.93141395 13.85547499 14.34765625 20.95117188 C15.04430123 22.40493335 15.74091572 23.85870944 16.4375 25.3125 C17.12590228 26.73912528 17.81470206 28.16555883 18.50390625 29.59179688 C19.86695808 32.41454536 21.21794266 35.24264468 22.56152344 38.07470703 C23.89139766 40.87230731 25.26180683 43.64427579 26.66503906 46.40576172 C27.32096707 47.72753731 27.9768917 49.04931458 28.6328125 50.37109375 C29.51477295 52.10830688 29.51477295 52.10830688 30.41455078 53.88061523 C31.76133127 57.83359643 31.5556694 60.22597277 30.5625 64.25 C28.875 66.25 28.875 66.25 26.5625 67.25 C23.625 67.4375 23.625 67.4375 20.5625 66.25 C18.43822876 63.8240571 17.03099859 61.10799567 15.5625 58.25 C15.09328125 57.36441406 14.6240625 56.47882813 14.140625 55.56640625 C10.5625 48.64132725 10.5625 48.64132725 10.5625 46.25 C2.9725 46.25 -4.6175 46.25 -12.4375 46.25 C-12.7675 47.9 -13.0975 49.55 -13.4375 51.25 C-14.49566009 53.49112881 -15.6267748 55.69866894 -16.8125 57.875 C-17.41835937 59.00164062 -18.02421875 60.12828125 -18.6484375 61.2890625 C-21.30021121 65.67780589 -21.30021121 65.67780589 -23.4375 67.25 C-27.19031005 67.18298553 -29.52624514 67.01887129 -32.4375 64.5625 C-33.81729031 61.37173491 -33.2228481 59.62794606 -32.4375 56.25 C-31.40640632 53.80814772 -30.34131031 51.47619475 -29.15625 49.11328125 C-28.82659241 48.43993744 -28.49693481 47.76659363 -28.1572876 47.07284546 C-27.09126453 44.89908212 -26.01465235 42.7307669 -24.9375 40.5625 C-23.83589729 38.32669862 -22.73662985 36.08976026 -21.63763428 33.85267639 C-20.91250276 32.37692156 -20.18647405 30.90160722 -19.45953369 29.42674255 C-17.43032356 25.30310059 -15.44347333 21.16454232 -13.515625 16.9921875 C-12.90944336 15.68060669 -12.90944336 15.68060669 -12.29101562 14.3425293 C-11.57976778 12.79241813 -10.87484055 11.23938345 -10.17773438 9.68286133 C-5.91174359 0.42994499 -5.91174359 0.42994499 0 0 Z " fill="#010403" transform="translate(220.4375,87.75)"/>
<path d="M0 0 C3.23528607 -0.17128201 5.44254224 0.30187859 8.02856445 2.26098633 C9.34612735 5.68664987 8.99971983 8.26477073 7.96606445 11.69848633 C5.99405642 15.77684376 3.67204533 19.6292995 1.34106445 23.51098633 C0.31979817 25.24451785 -0.70144989 26.97806045 -1.72157288 28.71226501 C-2.78149363 30.51110546 -3.84619324 32.30705522 -4.91137695 34.1027832 C-8.27789681 39.79047746 -11.55481225 45.52972911 -14.84643555 51.26098633 C-16.67551837 54.42990969 -18.50680835 57.59754779 -20.33862305 60.76489258 C-21.4366647 62.66496005 -22.53312166 64.56594456 -23.62768555 66.46801758 C-25.02892885 68.90194799 -26.43660356 71.33202398 -27.84643555 73.76098633 C-28.24902588 74.46360596 -28.65161621 75.16622559 -29.06640625 75.89013672 C-31.80507783 80.58405747 -31.80507783 80.58405747 -34.03393555 81.69848633 C-37.81529001 82.1430365 -39.60678915 81.95628722 -42.90112305 79.96801758 C-43.89370117 79.15719727 -44.8862793 78.34637695 -45.90893555 77.51098633 C-46.45195312 77.07334961 -46.9949707 76.63571289 -47.55444336 76.18481445 C-48.74179378 75.22505622 -49.92387323 74.25874992 -51.10131836 73.28686523 C-53.18532508 71.57406234 -55.29104276 69.89076309 -57.40112305 68.21020508 C-58.86268207 67.04040828 -60.32362866 65.86984585 -61.78393555 64.69848633 C-62.83943604 63.85314331 -62.83943604 63.85314331 -63.91625977 62.99072266 C-64.56868652 62.46115967 -65.22111328 61.93159668 -65.89331055 61.38598633 C-66.47564453 60.91547852 -67.05797852 60.4449707 -67.65795898 59.96020508 C-69.84100232 57.95843645 -70.03066321 56.73693632 -70.28393555 53.76098633 C-70.03393555 50.69848633 -70.03393555 50.69848633 -68.97143555 48.82348633 C-65.80092752 46.98254618 -63.66407139 47.26779225 -60.03393555 47.69848633 C-56.88664547 49.4733322 -54.18222679 51.70562674 -51.40893555 54.01098633 C-49.9393008 55.19671436 -48.46799072 56.38036944 -46.99487305 57.56176758 C-46.31263672 58.11300293 -45.63040039 58.66423828 -44.92749023 59.23217773 C-42.73682834 60.92855671 -40.46367173 62.36837383 -38.03393555 63.69848633 C-37.76097656 62.97894775 -37.48801758 62.25940918 -37.20678711 61.51806641 C-36.05332783 58.74510613 -34.73654867 56.20369263 -33.26831055 53.58520508 C-32.7146582 52.59584961 -32.16100586 51.60649414 -31.59057617 50.5871582 C-30.99438477 49.53077148 -30.39819336 48.47438477 -29.78393555 47.38598633 C-29.16711914 46.28963867 -28.55030273 45.19329102 -27.91479492 44.0637207 C-23.50362459 36.24696598 -19.0420835 28.45974212 -14.53393555 20.69848633 C-13.97158203 19.72741943 -13.40922852 18.75635254 -12.82983398 17.75585938 C-11.25307446 15.05616346 -9.65283807 12.37309606 -8.03393555 9.69848633 C-7.50888428 8.82232666 -6.98383301 7.94616699 -6.44287109 7.04345703 C-5.93022705 6.22449951 -5.41758301 5.40554199 -4.8894043 4.56176758 C-4.43976318 3.83513916 -3.99012207 3.10851074 -3.52685547 2.35986328 C-2.03393555 0.69848633 -2.03393555 0.69848633 0 0 Z " fill="#040402" transform="translate(372.033935546875,284.301513671875)"/>
<path d="M0 0 C3.89762726 2.59841818 4.90294837 5.76633421 6.65234375 9.9375 C7.16445152 11.12956055 7.16445152 11.12956055 7.68690491 12.34570312 C8.77890361 14.89361176 9.85818226 17.4466976 10.9375 20 C11.66000817 21.68914412 12.38330697 23.37795029 13.10742188 25.06640625 C16.50351073 33.00454115 19.8674324 40.95332201 23 49 C14.80098421 46.44523421 7.13300069 43.02244993 -0.6484375 39.40820312 C-8.06677834 35.89847431 -8.06677834 35.89847431 -16 36 C-20.71694501 40.90631142 -22.47457901 48.08238625 -24.75 54.375 C-25.16121094 55.49261719 -25.57242187 56.61023438 -25.99609375 57.76171875 C-27.004428 60.5053259 -28.00547384 63.25136399 -29 66 C-32.10053851 61.34919224 -34.01972121 56.20082726 -36.1875 51.0625 C-36.66380859 49.96486328 -37.14011719 48.86722656 -37.63085938 47.73632812 C-38.07623047 46.67994141 -38.52160156 45.62355469 -38.98046875 44.53515625 C-39.39192139 43.569729 -39.80337402 42.60430176 -40.22729492 41.60961914 C-41.04811681 38.83749744 -41.14090754 37.62816202 -40 35 C-37.76953125 33.24609375 -37.76953125 33.24609375 -34.8125 31.4375 C-21.40822856 22.85812722 -9.20690127 13.11285938 0 0 Z " fill="#FAC100" transform="translate(432,396)"/>
<path d="M0 0 C3.50429442 1.16809814 4.01909349 2.07004312 6.125 5 C16.07379811 18.08617843 29.29022029 27.19453173 43 36 C42.35952645 39.83977684 41.22822779 43.15596714 39.71484375 46.73828125 C39.26689453 47.80498047 38.81894531 48.87167969 38.35742188 49.97070312 C37.88884766 51.07349609 37.42027344 52.17628906 36.9375 53.3125 C36.22883789 54.99569336 36.22883789 54.99569336 35.50585938 56.71289062 C34.34138677 59.47704277 33.17263728 62.239304 32 65 C29.0083324 63.5041662 28.831732 61.38264259 27.6875 58.28515625 C27.25179687 57.12435547 26.81609375 55.96355469 26.3671875 54.76757812 C25.91601562 53.54490234 25.46484375 52.32222656 25 51.0625 C24.1090749 48.65572948 23.21346913 46.25068485 22.3125 43.84765625 C21.91675781 42.77523682 21.52101563 41.70281738 21.11328125 40.59790039 C20.14741269 37.89979784 20.14741269 37.89979784 18 36 C12.73302369 35.52905432 9.12068342 36.45024798 4.33203125 38.58984375 C3.72993332 38.85382462 3.12783539 39.11780548 2.50749207 39.38978577 C0.6035956 40.22706889 -1.29200139 41.08139826 -3.1875 41.9375 C-5.09506252 42.78656415 -7.00417552 43.63195997 -8.91462708 44.47450256 C-10.64157389 45.23804051 -12.36424857 46.01121953 -14.08666992 46.78491211 C-16.41512026 47.75605913 -18.53897383 48.49524118 -21 49 C-16.54339966 37.94763115 -11.86653918 26.99491885 -7.125 16.0625 C-6.83074127 15.38362732 -6.53648254 14.70475464 -6.23330688 14.00531006 C-1.20382909 2.40765817 -1.20382909 2.40765817 0 0 Z " fill="#FAC100" transform="translate(249,396)"/>
<path d="M0 0 C0.832966 -0.00686325 1.66593201 -0.0137265 2.5241394 -0.02079773 C5.27538128 -0.03908766 8.02605418 -0.03522554 10.77734375 -0.02954102 C12.69018744 -0.03410142 14.60302948 -0.03940657 16.51586914 -0.04542542 C20.52399352 -0.05436056 24.53191868 -0.05192838 28.54003906 -0.04199219 C33.6784663 -0.03049569 38.81620703 -0.05072237 43.95454407 -0.07990932 C47.90421928 -0.09824659 51.85372919 -0.09798392 55.80343628 -0.0922718 C57.69807906 -0.09211832 59.59273286 -0.098185 61.48733521 -0.11056328 C64.13522561 -0.12542677 66.78183736 -0.11483137 69.4296875 -0.09765625 C70.21318573 -0.10732422 70.99668396 -0.11699219 71.80392456 -0.12695312 C75.32328758 -0.07910547 77.33448633 0.12156422 80.19750977 2.24790955 C81.71484375 4.40405273 81.71484375 4.40405273 82.27734375 7.40405273 C81.71484375 10.40405273 81.71484375 10.40405273 79.6988678 12.5592041 C75.90052913 14.90749614 72.73827694 14.96713362 68.40795898 14.92163086 C67.58460052 14.92864014 66.76124207 14.93564941 65.91293335 14.94287109 C63.19942202 14.96043397 60.48695887 14.94883581 57.7734375 14.93530273 C55.88444316 14.93799789 53.99545017 14.9418805 52.10646057 14.94689941 C48.15132412 14.95279192 44.19654943 14.94423853 40.24145508 14.92553711 C35.17140427 14.90273206 30.1021997 14.915882 25.03217983 14.93982697 C21.13309853 14.95427831 17.23421803 14.94968228 13.33513069 14.9393158 C11.46561648 14.93664748 9.59608404 14.93992194 7.72659111 14.94923401 C5.11468034 14.9593905 2.50414244 14.94391269 -0.10766602 14.92163086 C-0.88024246 14.92972778 -1.65281891 14.93782471 -2.44880676 14.94616699 C-5.92074891 14.89127928 -7.92562069 14.6664277 -10.76499939 12.59436035 C-12.98438993 9.39656667 -12.83659302 7.19518052 -12.28515625 3.40405273 C-8.88134719 -0.3959591 -4.7551747 -0.02732121 0 0 Z " fill="#020203" transform="translate(163.28515625,202.595947265625)"/>
<path d="M0 0 C1.03218407 -0.00788544 1.03218407 -0.00788544 2.08522034 -0.01593018 C4.35977885 -0.02913383 6.6336375 -0.02039136 8.90820312 -0.01025391 C10.48856745 -0.01227455 12.06893086 -0.01518591 13.64929199 -0.01895142 C16.96143471 -0.02337524 20.27333471 -0.01694201 23.58544922 -0.00292969 C27.83274403 0.01416245 32.07947014 0.00432155 36.32674408 -0.01364708 C39.5901112 -0.02448346 42.85334331 -0.0210393 46.11671448 -0.0132637 C47.68282641 -0.01126128 49.24895056 -0.01372246 50.81504822 -0.02070236 C53.00333156 -0.02831472 55.19069174 -0.01671701 57.37890625 0 C58.62450317 0.00238678 59.8701001 0.00477356 61.15344238 0.00723267 C64.18945312 0.38818359 64.18945312 0.38818359 66.08776855 1.69760132 C67.98170369 4.6039261 67.6007653 7.03892732 67.18945312 10.38818359 C65.00988984 13.34639345 63.81766365 14.28283571 60.16053772 14.89611816 C58.38446388 14.90089172 58.38446388 14.90089172 56.57250977 14.90576172 C55.91671432 14.912771 55.26091888 14.91978027 54.58525085 14.92700195 C52.42293628 14.94457019 50.26193667 14.93296378 48.09960938 14.91943359 C46.59272511 14.92212921 45.08584255 14.92601222 43.57896423 14.93103027 C40.42234724 14.93692394 37.2661834 14.92836842 34.10961914 14.90966797 C30.0697645 14.88689734 26.03097395 14.89998922 21.99115849 14.92395782 C18.87951187 14.93843652 15.76811603 14.93380015 12.65646172 14.92344666 C11.16736156 14.92078404 9.67823841 14.92403279 8.18916512 14.93336487 C6.10409715 14.94356334 4.0207326 14.92798662 1.93579102 14.90576172 C0.7509462 14.90257935 -0.43389862 14.89939697 -1.65464783 14.89611816 C-5.46877113 14.28224394 -7.1473726 13.15323866 -9.81054688 10.38818359 C-10.61941006 4.62503338 -10.61941006 4.62503338 -8.70495605 1.69760132 C-5.84212191 -0.28119282 -3.45227447 0.00661516 0 0 Z " fill="#050507" transform="translate(160.810546875,249.61181640625)"/>
<path d="M0 0 C1.66203712 -0.01902626 1.66203712 -0.01902626 3.35765076 -0.03843689 C4.55455032 -0.03550125 5.75144989 -0.03256561 6.98461914 -0.02954102 C8.82848961 -0.03740379 8.82848961 -0.03740379 10.70960999 -0.04542542 C13.97808371 -0.05350148 17.24613937 -0.04636676 20.5145874 -0.03509521 C23.83349703 -0.03236759 27.15216116 -0.06754228 30.47094727 -0.09399414 C32.99633746 -0.0956063 35.5217302 -0.09502834 38.04711914 -0.09204102 C39.24199448 -0.10327499 40.43686981 -0.11450897 41.66795349 -0.12608337 C43.33471886 -0.11201195 43.33471886 -0.11201195 45.03515625 -0.09765625 C46.50051064 -0.097407 46.50051064 -0.097407 47.99546814 -0.09715271 C51.31485397 0.5459931 52.50284503 1.79194394 54.58227539 4.40405273 C55.14477539 6.84155273 55.14477539 6.84155273 54.58227539 9.40405273 C52.49485705 12.45863777 50.82533163 14.17013422 47.11450195 14.86843872 C43.95794964 15.05080172 40.83769656 15.0704589 37.67602539 15.03295898 C35.93983948 15.03657692 35.93983948 15.03657692 34.1685791 15.04026794 C31.72424896 15.03928954 29.27989665 15.02589772 26.83569336 15.00097656 C23.09550658 14.96667408 19.35768301 14.98031895 15.61743164 14.99975586 C13.2411195 14.99285729 10.86481346 14.98318482 8.48852539 14.97045898 C7.37070679 14.97541885 6.25288818 14.98037872 5.10119629 14.98548889 C-2.59396308 14.868827 -2.59396308 14.868827 -6.63061523 12.59130859 C-8.41772461 10.40405273 -8.41772461 10.40405273 -8.91772461 6.84155273 C-8.41772461 3.40405273 -8.41772461 3.40405273 -7.2250824 1.71446228 C-4.7441837 -0.08429243 -3.05049914 0.01688523 0 0 Z " fill="#050507" transform="translate(87.417724609375,249.595947265625)"/>
<path d="M0 0 C1.08792847 -0.01583633 2.17585693 -0.03167267 3.29675293 -0.04798889 C4.46661743 -0.04302902 5.63648193 -0.03806915 6.84179688 -0.03295898 C8.65025085 -0.04225685 8.65025085 -0.04225685 10.49523926 -0.05174255 C13.04385571 -0.05884541 15.59251852 -0.05565872 18.14111328 -0.04296875 C22.04611336 -0.02910398 25.94871803 -0.06317115 29.85351562 -0.10131836 C32.32877663 -0.10226952 34.80404064 -0.1004109 37.27929688 -0.09545898 C38.44916138 -0.10871719 39.61902588 -0.1219754 40.82434082 -0.13563538 C48.8801287 -0.0428314 48.8801287 -0.0428314 52.328125 2.87744141 C53.92152331 6.31139152 53.79820855 7.97516995 52.56054688 11.53344727 C49.52120358 14.4429401 47.36040485 14.91361894 43.21289062 14.9375 C41.61102905 14.95652626 41.61102905 14.95652626 39.97680664 14.97593689 C38.82881592 14.97300125 37.6808252 14.97006561 36.49804688 14.96704102 C35.31460693 14.97228287 34.13116699 14.97752472 32.91186523 14.98292542 C30.41032699 14.98934749 27.90875856 14.98800626 25.40722656 14.97949219 C21.57497559 14.97097932 17.74421318 14.99974861 13.91210938 15.03149414 C11.48242232 15.03310611 9.05273263 15.03252871 6.62304688 15.02954102 C4.90106079 15.04639198 4.90106079 15.04639198 3.14428711 15.06358337 C2.07637939 15.05420242 1.00847168 15.04482147 -0.09179688 15.03515625 C-1.03015381 15.03499008 -1.96851074 15.03482391 -2.93530273 15.03465271 C-6.20590633 14.38004174 -7.4006389 13.12385372 -9.43945312 10.53344727 C-9.93945312 7.53344727 -9.93945312 7.53344727 -9.43945312 4.53344727 C-6.53780103 0.83766294 -4.64712534 0.03012751 0 0 Z " fill="#020203" transform="translate(88.439453125,202.466552734375)"/>
<path d="M0 0 C1.73618591 -0.00929787 1.73618591 -0.00929787 3.50744629 -0.01878357 C5.95173299 -0.02587947 8.39606804 -0.02271183 10.84033203 -0.01000977 C14.58065647 0.0038577 18.31848047 -0.03022508 22.05859375 -0.06835938 C24.43489645 -0.06931055 26.81120227 -0.06745183 29.1875 -0.0625 C30.3053186 -0.07575821 31.42313721 -0.08901642 32.5748291 -0.10267639 C41.20732587 0.00089792 41.20732587 0.00089792 44.33789062 2.91040039 C46.09375 5.56640625 46.09375 5.56640625 46.09375 8.69140625 C45.06388021 11.6522819 44.5451599 12.71164136 42.09375 14.56640625 C39.62719727 14.94735718 39.62719727 14.94735718 36.66015625 14.95458984 C35.54890381 14.96404633 34.43765137 14.97350281 33.29272461 14.98324585 C32.09268799 14.97717316 30.89265137 14.97110046 29.65625 14.96484375 C28.42463135 14.96771393 27.1930127 14.97058411 25.92407227 14.97354126 C22.65027043 14.97610783 19.37689463 14.96402235 16.10314941 14.94726562 C14.09564615 14.94141178 12.08853631 14.9472442 10.08105469 14.95751953 C6.23093305 14.97601605 2.38139566 14.97381617 -1.46875 14.96484375 C-3.26880493 14.97395279 -3.26880493 14.97395279 -5.10522461 14.98324585 C-6.77210327 14.96906113 -6.77210327 14.96906113 -8.47265625 14.95458984 C-9.45177979 14.95220306 -10.43090332 14.94981628 -11.43969727 14.94735718 C-13.90625 14.56640625 -13.90625 14.56640625 -15.71459961 13.25698853 C-17.76620388 10.34639844 -17.38663153 7.98912466 -16.90625 4.56640625 C-12.4526901 -0.88433735 -6.46648809 -0.02869243 0 0 Z " fill="#050507" transform="translate(95.90625,295.43359375)"/>
<path d="M0 0 C1.13526123 -0.0038269 2.27052246 -0.00765381 3.44018555 -0.01159668 C5.83741138 -0.01431537 8.23466689 -0.00695731 10.63183594 0.00976562 C14.29950142 0.03117413 17.96520789 0.00996065 21.6328125 -0.015625 C23.96354599 -0.01298172 26.29427826 -0.00785674 28.625 0 C29.72094482 -0.00809692 30.81688965 -0.01619385 31.94604492 -0.02453613 C39.49457577 0.06835882 39.49457577 0.06835882 43.51171875 2.34179688 C45.3125 4.53125 45.3125 4.53125 45.8125 8.09375 C45.3125 11.53125 45.3125 11.53125 44.12084961 13.22183228 C41.63344754 15.0229488 39.9357162 14.9119821 36.87890625 14.91943359 C35.76765381 14.92889008 34.65640137 14.93834656 33.51147461 14.9480896 C32.31143799 14.94201691 31.11140137 14.93594421 29.875 14.9296875 C28.64338135 14.93255768 27.4117627 14.93542786 26.14282227 14.93838501 C22.86902043 14.94095158 19.59564463 14.9288661 16.32189941 14.91210938 C14.31439615 14.90625553 12.30728631 14.91208795 10.29980469 14.92236328 C6.44968305 14.9408598 2.60014566 14.93865992 -1.25 14.9296875 C-3.05005493 14.93879654 -3.05005493 14.93879654 -4.88647461 14.9480896 C-6.55335327 14.93390488 -6.55335327 14.93390488 -8.25390625 14.91943359 C-9.23302979 14.91704681 -10.21215332 14.91466003 -11.22094727 14.91220093 C-13.6875 14.53125 -13.6875 14.53125 -15.49584961 13.22183228 C-17.54745388 10.31124219 -17.16788153 7.95396841 -16.6875 4.53125 C-12.24400425 -0.87130829 -6.43284272 -0.04752633 0 0 Z " fill="#050507" transform="translate(167.6875,295.46875)"/>
<path d="M0 0 C5.66903861 3.0444837 9.08390172 6.78329401 11.375 12.8125 C11.77715934 17.39711644 11.3838583 20.66922976 9.375 24.8125 C5.61791498 23.12828947 5.61791498 23.12828947 4.125 21.1875 C1.10713116 18.81631734 -1.88911394 19.51600111 -5.625 19.8125 C-7.89708703 21.67962029 -7.89708703 21.67962029 -8 24.625 C-7.54515223 28.49120605 -6.16795708 29.95167328 -3.625 32.8125 C-3.625 33.4725 -3.625 34.1325 -3.625 34.8125 C-9.5642515 35.30743763 -13.71573748 34.28088882 -18.625 30.8125 C-23.06518161 26.67929391 -24.44949399 22.2142194 -24.7578125 16.23828125 C-24.48049211 11.17310587 -22.51204757 7.86736738 -19.3125 4.0625 C-13.05380124 -1.17734082 -7.86500367 -2.57646672 0 0 Z " fill="#63F7C6" transform="translate(150.625,103.1875)"/>
<path d="M0 0 C9.24 0 18.48 0 28 0 C28 7.92 28 15.84 28 24 C18.76 24 9.52 24 0 24 C0 16.08 0 8.16 0 0 Z " fill="#65FECB" transform="translate(93,343)"/>
<path d="M0 0 C8.91 0 17.82 0 27 0 C27 7.92 27 15.84 27 24 C18.09 24 9.18 24 0 24 C0 16.08 0 8.16 0 0 Z " fill="#66FFCC" transform="translate(168,343)"/>
<path d="M0 0 C2.72426311 2.35277269 3.8141763 4.62496331 5 8 C2.36 8 -0.28 8 -3 8 C-1.125 2.25 -1.125 2.25 0 0 Z " fill="#60F2C1" transform="translate(219,112)"/>
</svg>
